<svg width="70" height="70" viewBox="0 0 70 70" fill="none" xmlns="http://www.w3.org/2000/svg">
<path d="M33.5617 35.0226L55.4105 13.1728C56.5207 12.0637 57.0745 10.7073 57.0745 9.10362C57.0745 7.50011 56.5205 6.1443 55.4105 5.0354L52.0393 1.66303C50.9308 0.55445 49.5742 0 47.9712 0C46.3682 0 45.0122 0.55445 43.902 1.66303L14.5896 30.9309C13.4804 32.04 12.9258 33.3963 12.9258 35.0001C12.9258 36.6039 13.4802 37.9591 14.5896 39.0686L43.9019 68.3365C45.012 69.4456 46.3679 70 47.9711 70C49.5742 70 50.9307 69.4456 52.0391 68.3365L55.4104 64.9648C56.5205 63.8563 57.0744 62.5076 57.0744 60.9183C57.0744 59.3302 56.5204 57.9664 55.4104 56.8275L33.5617 35.0226Z" fill="black"/>
</svg>
