<svg width="377" height="315" viewBox="0 0 377 315" fill="none" xmlns="http://www.w3.org/2000/svg">
<g clip-path="url(#clip0)">
<path d="M155.341 74.1244H153.629V27.1738C153.629 23.6053 152.927 20.0717 151.563 16.7748C150.199 13.4779 148.2 10.4823 145.68 7.95899C143.16 5.43567 140.168 3.43406 136.875 2.06846C133.582 0.702852 130.053 -1.11642e-05 126.489 1.33003e-10H27.1403C23.5762 -1.11642e-05 20.047 0.702852 16.7542 2.06846C13.4614 3.43406 10.4694 5.43567 7.94921 7.95899C5.429 10.4823 3.42985 13.4779 2.06592 16.7748C0.701993 20.0717 -5.57527e-06 23.6053 0 27.1738V284.749C-3.34515e-06 288.317 0.701999 291.851 2.06593 295.148C3.42986 298.444 5.42901 301.44 7.94922 303.963C10.4694 306.487 13.4614 308.488 16.7542 309.854C20.047 311.22 23.5762 311.922 27.1403 311.922H126.489C130.053 311.922 133.582 311.22 136.875 309.854C140.168 308.488 143.16 306.487 145.68 303.963C148.2 301.44 150.199 298.444 151.563 295.148C152.927 291.851 153.629 288.317 153.629 284.749V107.545H155.341V74.1244Z" fill="#00F69E"/>
<path d="M127.584 7.06964H114.616C115.212 8.53357 115.44 10.1219 115.279 11.6947C115.117 13.2674 114.572 14.7764 113.692 16.0886C112.811 17.4008 111.621 18.476 110.228 19.2195C108.834 19.963 107.279 20.3519 105.7 20.3521H48.7847C47.2056 20.3519 45.6508 19.963 44.2572 19.2195C42.8636 18.476 41.674 17.4008 40.7932 16.0886C39.9124 14.7764 39.3675 13.2674 39.2064 11.6947C39.0452 10.1219 39.2729 8.53357 39.8692 7.06964H27.7568C25.0952 7.06964 22.4596 7.59453 20.0006 8.61435C17.5416 9.63416 15.3072 11.1289 13.4252 13.0133C11.5431 14.8977 10.0502 17.1348 9.0316 19.5969C8.01303 22.0589 7.48877 24.6977 7.48877 27.3627V284.56C7.48877 287.225 8.01302 289.863 9.03159 292.325C10.0502 294.788 11.5431 297.025 13.4252 298.909C15.3072 300.793 17.5416 302.288 20.0006 303.308C22.4596 304.328 25.0952 304.853 27.7568 304.853H127.584C130.246 304.853 132.881 304.328 135.34 303.308C137.799 302.288 140.034 300.793 141.916 298.909C143.798 297.025 145.291 294.788 146.309 292.325C147.328 289.863 147.852 287.225 147.852 284.56V27.3627C147.852 24.6977 147.328 22.0589 146.309 19.5969C145.291 17.1348 143.798 14.8977 141.916 13.0133C140.034 11.1289 137.799 9.63416 135.34 8.61435C132.881 7.59453 130.246 7.06964 127.584 7.06964Z" fill="white"/>
<path d="M48.2596 59.355H42.2993C42.0897 59.355 41.8887 59.4383 41.7405 59.5867C41.5923 59.7351 41.509 59.9363 41.509 60.1462V62.7656C41.509 62.9754 41.5923 63.1767 41.7405 63.3251C41.8887 63.4734 42.0897 63.5568 42.2993 63.5568H43.287V67.4816H47.2719V63.5568H48.2596C48.4692 63.5568 48.6702 63.4734 48.8184 63.3251C48.9666 63.1767 49.0498 62.9754 49.0498 62.7656V60.1462C49.0498 59.9363 48.9666 59.7351 48.8184 59.5867C48.6702 59.4383 48.4692 59.355 48.2596 59.355Z" fill="#00F69E"/>
<path d="M54.2296 83.3279C50.5792 77.9799 48.7131 71.6124 48.8986 65.1375C48.9019 64.9881 48.8535 64.8421 48.7615 64.7244C48.6695 64.6067 48.5397 64.5245 48.3941 64.4918V63.3599H42.0992V64.476H42.0124C41.8411 64.4763 41.6769 64.5446 41.5559 64.666C41.435 64.7875 41.3671 64.9521 41.3674 65.1236C41.3674 65.1393 41.368 65.155 41.3691 65.1707C41.865 72.0923 40.1904 78.2994 36.3453 83.7921C36.124 84.1078 36.011 84.4868 36.0231 84.8722L36.7114 106.19C36.728 106.666 36.9273 107.116 37.2678 107.448C37.6083 107.78 38.0636 107.968 38.5388 107.971H52.777C53.2576 107.967 53.7177 107.776 54.0593 107.437C54.4008 107.099 54.5968 106.64 54.6055 106.159L54.8708 85.4608C54.8786 84.7011 54.655 83.957 54.2296 83.3279Z" fill="#00F69E"/>
<path d="M51.9755 90.4091H39.5822C39.3988 90.4091 39.2175 90.4488 39.0508 90.5255C38.8841 90.6022 38.7359 90.7141 38.6165 90.8535C38.497 90.9929 38.4091 91.1565 38.3587 91.3331C38.3084 91.5098 38.2967 91.6952 38.3246 91.8767L40.1974 104.065H50.9513L53.2261 91.9178C53.2605 91.7338 53.2541 91.5445 53.2071 91.3633C53.1602 91.1821 53.074 91.0135 52.9546 90.8694C52.8352 90.7254 52.6856 90.6094 52.5163 90.5299C52.3471 90.4503 52.1624 90.4091 51.9755 90.4091Z" fill="white"/>
<path d="M114.61 123.216H108.65C108.44 123.216 108.239 123.299 108.091 123.447C107.943 123.596 107.859 123.797 107.859 124.007V126.626C107.859 126.836 107.943 127.037 108.091 127.186C108.239 127.334 108.44 127.418 108.65 127.418H109.637V131.342H113.622V127.418H114.61C114.82 127.418 115.021 127.334 115.169 127.186C115.317 127.037 115.4 126.836 115.4 126.626V124.007C115.4 123.797 115.317 123.596 115.169 123.447C115.021 123.299 114.82 123.216 114.61 123.216Z" fill="#E6E6E6"/>
<path d="M120.58 147.189C116.93 141.841 115.063 135.473 115.249 128.998C115.252 128.849 115.204 128.703 115.112 128.585C115.02 128.467 114.89 128.385 114.744 128.352V127.221H108.45V128.337H108.363C108.278 128.337 108.194 128.354 108.116 128.386C108.037 128.419 107.966 128.467 107.906 128.527C107.846 128.587 107.799 128.658 107.767 128.737C107.734 128.815 107.718 128.899 107.718 128.984C107.718 129 107.718 129.016 107.719 129.031C108.215 135.953 106.541 142.16 102.696 147.653C102.474 147.968 102.361 148.347 102.373 148.733L103.062 170.051C103.078 170.526 103.278 170.977 103.618 171.309C103.959 171.641 104.414 171.828 104.889 171.832H119.127C119.608 171.828 120.068 171.636 120.41 171.298C120.751 170.959 120.947 170.501 120.956 170.019L121.221 149.321C121.229 148.562 121.005 147.818 120.58 147.189Z" fill="#00F69E"/>
<path d="M118.326 154.27H105.933C105.749 154.27 105.568 154.31 105.401 154.386C105.235 154.463 105.087 154.575 104.967 154.714C104.848 154.854 104.76 155.017 104.709 155.194C104.659 155.37 104.647 155.556 104.675 155.737L106.548 167.926H117.302L119.577 155.779C119.611 155.595 119.605 155.405 119.558 155.224C119.511 155.043 119.425 154.874 119.305 154.73C119.186 154.586 119.036 154.47 118.867 154.391C118.698 154.311 118.513 154.27 118.326 154.27H118.326Z" fill="white"/>
<path d="M39.8801 213.496H37.0528C36.9534 213.496 36.8581 213.536 36.7878 213.606C36.7175 213.676 36.678 213.772 36.678 213.871V215.114C36.678 215.213 36.7175 215.309 36.7878 215.379C36.8581 215.45 36.9534 215.489 37.0528 215.489H37.5213V217.351H39.4116V215.489H39.8801C39.9795 215.489 40.0749 215.45 40.1451 215.379C40.2154 215.309 40.2549 215.213 40.2549 215.114V213.871C40.2549 213.772 40.2154 213.676 40.1451 213.606C40.0749 213.536 39.9795 213.496 39.8801 213.496Z" fill="#E6E6E6"/>
<path d="M42.7118 224.867C40.9803 222.331 40.0951 219.31 40.183 216.239C40.1846 216.168 40.1616 216.099 40.118 216.043C40.0744 215.987 40.0128 215.948 39.9437 215.933V215.396H36.9578V215.925H36.9166C36.8764 215.925 36.8366 215.933 36.7994 215.949C36.7622 215.964 36.7285 215.987 36.7001 216.015C36.6717 216.044 36.6491 216.078 36.6338 216.115C36.6184 216.152 36.6106 216.192 36.6106 216.232C36.6106 216.24 36.6109 216.247 36.6115 216.255C36.8871 219.389 36.0426 222.519 34.2284 225.088C34.1235 225.237 34.0699 225.417 34.0756 225.6L34.4021 235.712C34.4099 235.938 34.5045 236.151 34.666 236.309C34.8275 236.466 35.0435 236.555 35.2689 236.557H42.0228C42.2507 236.555 42.469 236.464 42.631 236.304C42.793 236.143 42.886 235.925 42.8901 235.697L43.0159 225.879C43.0197 225.519 42.9136 225.166 42.7118 224.867Z" fill="#00F69E"/>
<path d="M41.7399 228.585H35.2957V231.811H41.7399V228.585Z" fill="white"/>
<path d="M53.0412 213.496H50.214C50.1145 213.496 50.0192 213.536 49.9489 213.606C49.8786 213.676 49.8391 213.772 49.8391 213.871V215.114C49.8391 215.213 49.8786 215.309 49.9489 215.379C50.0192 215.45 50.1145 215.489 50.214 215.489H50.6825V217.351H52.5727V215.489H53.0412C53.1406 215.489 53.236 215.45 53.3063 215.379C53.3766 215.309 53.4161 215.213 53.4161 215.114V213.871C53.4161 213.772 53.3766 213.676 53.3063 213.606C53.236 213.536 53.1406 213.496 53.0412 213.496Z" fill="#E6E6E6"/>
<path d="M55.8729 224.867C54.1414 222.331 53.2562 219.31 53.3442 216.239C53.3457 216.168 53.3228 216.099 53.2791 216.043C53.2355 215.987 53.174 215.948 53.1049 215.933V215.396H50.1189V215.925H50.0778C50.0375 215.925 49.9977 215.933 49.9605 215.949C49.9234 215.964 49.8896 215.987 49.8612 216.015C49.8328 216.044 49.8103 216.078 49.7949 216.115C49.7796 216.152 49.7717 216.192 49.7718 216.232C49.7718 216.24 49.7721 216.247 49.7726 216.255C50.0482 219.389 49.2037 222.519 47.3896 225.088C47.2846 225.237 47.231 225.417 47.2367 225.6L47.5632 235.712C47.5711 235.938 47.6656 236.151 47.8271 236.309C47.9887 236.466 48.2047 236.555 48.4301 236.557H55.1839C55.4119 236.555 55.6301 236.464 55.7921 236.304C55.9541 236.143 56.0471 235.925 56.0512 235.697L56.1771 225.879C56.1808 225.519 56.0747 225.166 55.8729 224.867Z" fill="#00F69E"/>
<path d="M54.9008 228.585H48.4565V231.811H54.9008V228.585Z" fill="white"/>
<path d="M66.2021 213.496H63.3748C63.2754 213.496 63.1801 213.536 63.1098 213.606C63.0395 213.676 63 213.772 63 213.871V215.114C63 215.213 63.0395 215.309 63.1098 215.379C63.1801 215.45 63.2754 215.489 63.3748 215.489H63.8434V217.351H65.7336V215.489H66.2021C66.3015 215.489 66.3969 215.45 66.4672 215.379C66.5375 215.309 66.577 215.213 66.577 215.114V213.871C66.577 213.772 66.5375 213.676 66.4672 213.606C66.3969 213.536 66.3015 213.496 66.2021 213.496Z" fill="#E6E6E6"/>
<path d="M69.034 224.867C67.3025 222.331 66.4173 219.31 66.5053 216.239C66.5069 216.168 66.4839 216.099 66.4403 216.043C66.3967 215.987 66.3351 215.948 66.266 215.933V215.396H63.28V215.925H63.2389C63.1986 215.925 63.1588 215.933 63.1217 215.949C63.0845 215.964 63.0508 215.987 63.0224 216.015C62.9939 216.044 62.9714 216.078 62.9561 216.115C62.9407 216.152 62.9328 216.192 62.9329 216.232C62.9329 216.24 62.9332 216.247 62.9338 216.255C63.2093 219.389 62.3649 222.519 60.5507 225.088C60.4457 225.237 60.3921 225.417 60.3979 225.6L60.7244 235.712C60.7322 235.938 60.8268 236.151 60.9883 236.309C61.1498 236.466 61.3658 236.555 61.5912 236.557H68.345C68.573 236.555 68.7912 236.464 68.9532 236.304C69.1153 236.143 69.2082 235.925 69.2124 235.697L69.3382 225.879C69.3419 225.519 69.2358 225.166 69.034 224.867Z" fill="#00F69E"/>
<path d="M68.0619 228.585H61.6177V231.811H68.0619V228.585Z" fill="white"/>
<path d="M104.255 188.791H98.2951C98.1913 188.791 98.0886 188.811 97.9927 188.851C97.8968 188.891 97.8097 188.949 97.7363 189.023C97.663 189.096 97.6048 189.183 97.565 189.279C97.5253 189.375 97.5049 189.478 97.5049 189.582V192.202C97.5049 192.411 97.5881 192.613 97.7363 192.761C97.8845 192.909 98.0855 192.993 98.2951 192.993H99.2828V196.917H103.268V192.993H104.255C104.465 192.993 104.666 192.909 104.814 192.761C104.962 192.613 105.046 192.411 105.046 192.202V189.582C105.046 189.478 105.025 189.375 104.986 189.279C104.946 189.183 104.888 189.096 104.814 189.023C104.741 188.949 104.654 188.891 104.558 188.851C104.462 188.811 104.359 188.791 104.255 188.791Z" fill="#E6E6E6"/>
<path d="M110.225 212.764C106.575 207.416 104.709 201.048 104.894 194.573C104.898 194.424 104.849 194.278 104.757 194.16C104.665 194.043 104.536 193.96 104.39 193.928V192.796H98.095V193.912H98.0083C97.9235 193.912 97.8395 193.929 97.7612 193.961C97.6828 193.994 97.6117 194.042 97.5518 194.102C97.4919 194.162 97.4444 194.233 97.412 194.312C97.3797 194.39 97.3631 194.474 97.3632 194.559C97.3632 194.575 97.3638 194.591 97.365 194.606C97.8609 201.528 96.1863 207.735 92.3411 213.228C92.1199 213.544 92.0068 213.923 92.019 214.308L92.7073 235.626C92.7238 236.102 92.9231 236.552 93.2636 236.884C93.6041 237.216 94.0595 237.403 94.5347 237.407H108.773C109.254 237.403 109.714 237.212 110.055 236.873C110.397 236.534 110.593 236.076 110.601 235.595L110.867 214.897C110.875 214.137 110.651 213.393 110.225 212.764Z" fill="#00F69E"/>
<path d="M107.972 219.845H95.5783C95.3949 219.845 95.2136 219.885 95.0469 219.961C94.8802 220.038 94.732 220.15 94.6126 220.289C94.4931 220.429 94.4052 220.592 94.3548 220.769C94.3045 220.946 94.2928 221.131 94.3207 221.313L96.1935 233.501H106.947L109.222 221.354C109.257 221.17 109.25 220.98 109.203 220.799C109.156 220.618 109.07 220.449 108.951 220.305C108.831 220.161 108.682 220.045 108.512 219.966C108.343 219.886 108.159 219.845 107.972 219.845Z" fill="white"/>
<path d="M107.51 110.716H71.98C74.464 97.2692 73.8925 81.0321 71.98 63.5702H107.51C105.648 81.0321 105.092 97.2692 107.51 110.716Z" fill="#00F69E"/>
<path d="M89.9586 94.429C94.6869 94.429 98.5199 90.5913 98.5199 85.8571C98.5199 81.123 94.6869 77.2852 89.9586 77.2852C85.2303 77.2852 81.3972 81.123 81.3972 85.8571C81.3972 90.5913 85.2303 94.429 89.9586 94.429Z" fill="white"/>
<path d="M74.9763 173.291H39.4468C41.9308 159.844 41.3593 143.607 39.4468 126.145H74.9763C73.1147 143.607 72.5584 159.844 74.9763 173.291Z" fill="#00F69E"/>
<path d="M57.4256 157.004C62.1539 157.004 65.9869 153.166 65.9869 148.432C65.9869 143.698 62.1539 139.86 57.4256 139.86C52.6973 139.86 48.8643 143.698 48.8643 148.432C48.8643 153.166 52.6973 157.004 57.4256 157.004Z" fill="white"/>
<path d="M127.628 113.716H92.0989C94.5829 100.269 94.0114 84.0323 92.0989 66.5704H127.628C125.767 84.0323 125.21 100.269 127.628 113.716Z" fill="#E6E6E6"/>
<path d="M110.078 97.4292C114.806 97.4292 118.639 93.5914 118.639 88.8573C118.639 84.1232 114.806 80.2854 110.078 80.2854C105.349 80.2854 101.516 84.1232 101.516 88.8573C101.516 93.5914 105.349 97.4292 110.078 97.4292Z" fill="white"/>
<path d="M127.628 111.573H92.0989C94.5829 98.1264 94.0114 81.8893 92.0989 64.4274H127.628C125.767 81.8893 125.21 98.1264 127.628 111.573Z" fill="#E6E6E6"/>
<path d="M110.078 95.2863C114.806 95.2863 118.639 91.4485 118.639 86.7144C118.639 81.9802 114.806 78.1425 110.078 78.1425C105.349 78.1425 101.516 81.9802 101.516 86.7144C101.516 91.4485 105.349 95.2863 110.078 95.2863Z" fill="white"/>
<path d="M127.628 113.716H92.0989C94.5829 100.269 94.0114 84.0323 92.0989 66.5704H127.628C125.767 84.0323 125.21 100.269 127.628 113.716Z" fill="#00F69E"/>
<path d="M110.078 97.4292C114.806 97.4292 118.639 93.5914 118.639 88.8573C118.639 84.1232 114.806 80.2854 110.078 80.2854C105.349 80.2854 101.516 84.1232 101.516 88.8573C101.516 93.5914 105.349 97.4292 110.078 97.4292Z" fill="white"/>
<path d="M135.762 108.144H19.3276V121.002H135.762V108.144Z" fill="#00F69E"/>
<path d="M135.762 172.005H19.3276V184.863H135.762V172.005Z" fill="#00F69E"/>
<path d="M135.762 235.866H19.3276V248.723H135.762V235.866Z" fill="#00F69E"/>
<path d="M338.304 288.029L309.297 267.487C319.08 257.945 327.978 244.359 336.488 228.997L365.495 249.538C353.904 262.719 344.085 275.653 338.304 288.029Z" fill="#00F69E"/>
<path d="M338.312 266.159C343.041 266.159 346.874 262.321 346.874 257.587C346.874 252.853 343.041 249.015 338.312 249.015C333.584 249.015 329.751 252.853 329.751 257.587C329.751 262.321 333.584 266.159 338.312 266.159Z" fill="white"/>
<path d="M198.376 194.292H195.192C195.08 194.292 194.973 194.336 194.893 194.416C194.814 194.495 194.77 194.602 194.77 194.714V196.114C194.77 196.169 194.781 196.224 194.802 196.276C194.823 196.327 194.854 196.373 194.893 196.413C194.933 196.452 194.979 196.483 195.03 196.504C195.082 196.526 195.136 196.536 195.192 196.536H195.72V198.633H197.848V196.536H198.376C198.488 196.536 198.595 196.492 198.675 196.413C198.754 196.333 198.798 196.226 198.798 196.114V194.714C198.798 194.602 198.754 194.495 198.675 194.416C198.595 194.336 198.488 194.292 198.376 194.292Z" fill="#E6E6E6"/>
<path d="M201.565 207.098C199.615 204.241 198.618 200.84 198.717 197.381C198.719 197.301 198.693 197.223 198.644 197.16C198.595 197.097 198.526 197.053 198.448 197.036V196.431H195.085V197.027H195.039C194.993 197.028 194.949 197.037 194.907 197.054C194.865 197.071 194.827 197.097 194.795 197.129C194.763 197.161 194.737 197.199 194.72 197.241C194.703 197.283 194.694 197.328 194.694 197.373C194.694 197.382 194.694 197.39 194.695 197.399C195.005 200.928 194.054 204.453 192.011 207.346C191.893 207.515 191.833 207.717 191.839 207.923L192.207 219.312C192.216 219.566 192.322 219.807 192.504 219.984C192.686 220.161 192.929 220.261 193.183 220.263H200.789C201.046 220.261 201.292 220.159 201.474 219.978C201.657 219.797 201.761 219.552 201.766 219.295L201.908 208.238C201.912 207.832 201.792 207.435 201.565 207.098Z" fill="#00F69E"/>
<path opacity="0.2" d="M197.712 194.748C197.712 194.99 197.616 195.222 197.445 195.393C197.275 195.564 197.043 195.66 196.801 195.66C196.56 195.66 196.328 195.564 196.157 195.393C195.987 195.222 195.891 194.99 195.891 194.748" fill="black"/>
<path d="M200.084 209.293H193.663V213.579H200.084V209.293Z" fill="white"/>
<path d="M299.139 238.782H293.178C292.969 238.782 292.768 238.865 292.619 239.013C292.471 239.162 292.388 239.363 292.388 239.573V242.192C292.388 242.402 292.471 242.603 292.619 242.752C292.768 242.9 292.969 242.983 293.178 242.983H294.166V246.908H298.151V242.983H299.139C299.348 242.983 299.549 242.9 299.697 242.752C299.846 242.603 299.929 242.402 299.929 242.192V239.573C299.929 239.363 299.846 239.162 299.697 239.013C299.549 238.865 299.348 238.782 299.139 238.782Z" fill="#E6E6E6"/>
<path d="M305.108 262.754C301.458 257.406 299.592 251.039 299.777 244.564C299.781 244.415 299.732 244.269 299.64 244.151C299.548 244.033 299.419 243.951 299.273 243.918V242.786H292.978V243.902H292.891C292.806 243.903 292.723 243.919 292.644 243.952C292.566 243.985 292.495 244.032 292.435 244.092C292.375 244.153 292.327 244.224 292.295 244.302C292.263 244.381 292.246 244.465 292.246 244.55C292.246 244.566 292.247 244.581 292.248 244.597C292.744 251.519 291.069 257.726 287.224 263.219C287.003 263.534 286.89 263.913 286.902 264.299L287.59 285.617C287.607 286.092 287.806 286.543 288.147 286.875C288.487 287.207 288.943 287.394 289.418 287.398H303.656C304.137 287.394 304.597 287.202 304.938 286.864C305.28 286.525 305.476 286.066 305.484 285.585L305.75 264.887C305.757 264.127 305.534 263.383 305.108 262.754Z" fill="#00F69E"/>
<path opacity="0.2" d="M297.896 239.635C297.896 240.088 297.716 240.522 297.397 240.842C297.077 241.162 296.643 241.342 296.191 241.342C295.739 241.342 295.305 241.162 294.986 240.842C294.666 240.522 294.486 240.088 294.486 239.635" fill="black"/>
<path d="M302.855 269.836H290.461C290.278 269.836 290.097 269.875 289.93 269.952C289.763 270.029 289.615 270.141 289.496 270.28C289.376 270.419 289.288 270.583 289.238 270.76C289.188 270.936 289.176 271.122 289.204 271.303L291.077 283.491H301.83L304.105 271.344C304.14 271.16 304.133 270.971 304.086 270.79C304.039 270.609 303.953 270.44 303.834 270.296C303.714 270.152 303.565 270.036 303.395 269.956C303.226 269.877 303.042 269.836 302.855 269.836Z" fill="white"/>
<path d="M282.133 287.996H246.603C249.087 274.549 248.516 258.312 246.603 240.85H282.133C280.271 258.312 279.715 274.549 282.133 287.996Z" fill="#00F69E"/>
<path d="M264.582 271.709C269.31 271.709 273.143 267.871 273.143 263.137C273.143 258.403 269.31 254.565 264.582 254.565C259.854 254.565 256.021 258.403 256.021 263.137C256.021 267.871 259.854 271.709 264.582 271.709Z" fill="white"/>
<path d="M136.808 139.622L144.784 138.896L149.86 126.555L140.796 121.472L136.808 139.622Z" fill="#FFB8B8"/>
<path d="M210.008 173.504C210.273 172.842 210.377 172.126 210.312 171.415C210.247 170.705 210.014 170.02 209.632 169.417C209.251 168.815 208.731 168.312 208.118 167.949C207.504 167.587 206.813 167.376 206.101 167.333L193.717 166.594L191.894 172.665L204.642 176.17C205.708 176.463 206.844 176.353 207.833 175.862C208.823 175.37 209.597 174.531 210.008 173.504Z" fill="#FFB8B8"/>
<path d="M196.71 176.272L196.574 164.881L169.066 160.486L147.875 136.152C146.772 134.885 145.249 134.062 143.586 133.835C141.924 133.607 140.236 133.991 138.834 134.914C137.986 135.473 137.27 136.212 136.738 137.078C136.206 137.944 135.87 138.917 135.755 139.928C135.64 140.938 135.748 141.962 136.071 142.926C136.394 143.89 136.925 144.771 137.626 145.507L155.109 167.049L196.71 176.272Z" fill="#575A89"/>
<path d="M130.645 304.424H137.896L155.881 223.008L174.513 248.159L185.39 302.609H192.278L190.828 244.166L166.537 181.73H142.609C136.07 193.579 130.94 205.793 136.808 218.393L130.645 304.424Z" fill="#2F2E41"/>
<path d="M180.945 309.369C180.865 309.626 180.84 309.897 180.873 310.164C180.905 310.431 180.995 310.688 181.134 310.918C181.274 311.148 181.461 311.345 181.683 311.497C181.904 311.649 182.156 311.752 182.421 311.799L200.164 314.952C200.865 315.08 201.589 314.948 202.199 314.579C202.809 314.209 203.263 313.63 203.476 312.949C203.683 312.298 203.654 311.595 203.394 310.963C203.135 310.331 202.661 309.811 202.057 309.495C198.155 307.489 194.798 304.566 192.272 300.977C190.322 302.795 188.142 302.624 185.827 301.284L183.372 301.591L180.945 309.369Z" fill="#2F2E41"/>
<path d="M127.287 309.369C127.207 309.626 127.183 309.897 127.215 310.164C127.248 310.431 127.337 310.688 127.476 310.918C127.616 311.148 127.803 311.345 128.025 311.497C128.247 311.649 128.498 311.752 128.763 311.799L146.506 314.952C147.207 315.08 147.931 314.948 148.541 314.579C149.151 314.209 149.605 313.63 149.818 312.949C150.025 312.298 149.996 311.595 149.736 310.963C149.477 310.331 149.003 309.811 148.399 309.495C144.498 307.489 141.14 304.566 138.614 300.977C136.664 302.795 134.484 302.624 132.17 301.284L129.715 301.591L127.287 309.369Z" fill="#2F2E41"/>
<path d="M150.041 131.092C155.648 131.092 160.192 126.541 160.192 120.928C160.192 115.315 155.648 110.764 150.041 110.764C144.435 110.764 139.89 115.315 139.89 120.928C139.89 126.541 144.435 131.092 150.041 131.092Z" fill="#FFB8B8"/>
<path d="M140.977 184.453L167.444 183.727L159.671 159.234C164.501 151.481 159.64 143.736 152.76 135.992L147.322 132.362L138.621 131.636C134.853 135.673 132.792 141.012 132.869 146.535C133.041 158.364 135.133 171.24 140.977 184.453Z" fill="#575A89"/>
<path d="M201.785 200.939C202.289 200.435 202.666 199.817 202.885 199.138C203.104 198.46 203.159 197.738 203.045 197.034C202.931 196.33 202.651 195.662 202.229 195.088C201.807 194.513 201.255 194.046 200.618 193.727L189.523 188.17L185.461 193.033L195.804 201.277C196.669 201.966 197.756 202.312 198.859 202.25C199.962 202.188 201.004 201.721 201.785 200.939Z" fill="#FFB8B8"/>
<path d="M188.471 198.247L192.822 187.72L169.259 172.845L159.337 142.125C158.821 140.527 157.743 139.17 156.305 138.306C154.866 137.442 153.163 137.13 151.512 137.427C150.512 137.606 149.564 138.004 148.734 138.591C147.905 139.178 147.214 139.94 146.711 140.823C146.208 141.707 145.905 142.69 145.823 143.704C145.742 144.718 145.883 145.737 146.238 146.69L153.848 173.381L188.471 198.247Z" fill="#575A89"/>
<path d="M133.364 116.935C133.364 120.89 135.929 127.014 139.165 129.64C141.342 131.406 144.219 131.332 145.328 128.914C146.466 126.433 150.389 120.603 157.292 116.935C166.496 112.046 154.029 103.681 145.328 104.956C138.79 105.915 133.364 110.319 133.364 116.935Z" fill="#2F2E41"/>
<path d="M139.527 111.49C143.532 111.49 146.778 108.24 146.778 104.23C146.778 100.22 143.532 96.97 139.527 96.97C135.523 96.97 132.276 100.22 132.276 104.23C132.276 108.24 135.523 111.49 139.527 111.49Z" fill="#2F2E41"/>
<path d="M147.866 101.689C147.865 99.8587 147.174 98.0963 145.93 96.7551C144.686 95.4138 142.982 94.5928 141.159 94.4566C141.339 94.4431 141.519 94.4291 141.703 94.4291C143.626 94.4291 145.47 95.194 146.83 96.5555C148.19 97.917 148.954 99.7636 148.954 101.689C148.954 103.615 148.19 105.461 146.83 106.823C145.47 108.184 143.626 108.949 141.703 108.949C141.519 108.949 141.339 108.935 141.159 108.922C142.982 108.785 144.686 107.964 145.93 106.623C147.174 105.282 147.865 103.519 147.866 101.689Z" fill="#2F2E41"/>
<path d="M150.223 124.558C151.124 124.558 151.854 123.583 151.854 122.38C151.854 121.177 151.124 120.202 150.223 120.202C149.322 120.202 148.591 121.177 148.591 122.38C148.591 123.583 149.322 124.558 150.223 124.558Z" fill="#FFB8B8"/>
<path d="M355.667 291.109H242.791L218.888 177.976H198.489V172.899H222.998L246.9 286.033H355.667V291.109Z" fill="#3F3D56"/>
<path d="M259.332 311.778C265.333 311.778 270.197 306.908 270.197 300.9C270.197 294.892 265.333 290.021 259.332 290.021C253.332 290.021 248.468 294.892 248.468 300.9C248.468 306.908 253.332 311.778 259.332 311.778Z" fill="#3F3D56"/>
<path d="M340.456 311.778C346.457 311.778 351.321 306.908 351.321 300.9C351.321 294.892 346.457 290.021 340.456 290.021C334.456 290.021 329.591 294.892 329.591 300.9C329.591 306.908 334.456 311.778 340.456 311.778Z" fill="#3F3D56"/>
<path d="M353.609 288.719H243.787L224.41 192.843H371.793C372.545 192.843 373.288 193.006 373.971 193.321C374.654 193.636 375.261 194.095 375.75 194.668C376.239 195.24 376.598 195.911 376.803 196.636C377.008 197.36 377.053 198.121 376.937 198.865L358.752 284.315C358.564 285.544 357.942 286.665 356.998 287.474C356.054 288.282 354.851 288.724 353.609 288.719ZM244.979 287.268H353.609C354.505 287.272 355.373 286.953 356.054 286.37C356.736 285.786 357.185 284.977 357.32 284.09L375.505 198.639C375.589 198.103 375.556 197.554 375.409 197.031C375.261 196.508 375.002 196.023 374.649 195.61C374.296 195.197 373.858 194.865 373.365 194.638C372.872 194.411 372.336 194.293 371.793 194.293H226.168L244.979 287.268Z" fill="#3F3D56"/>
<path d="M265.137 288.412L252.447 193.686L253.876 193.45L266.566 288.176L265.137 288.412Z" fill="#3F3D56"/>
<path d="M335.696 287.685L334.266 287.453L346.585 193.452L348.016 193.684L335.696 287.685Z" fill="#3F3D56"/>
<path d="M302.078 193.568H300.63V288.294H302.078V193.568Z" fill="#3F3D56"/>
<path d="M231.81 218.95L231.806 220.401L372.033 220.741L372.036 219.29L231.81 218.95Z" fill="#3F3D56"/>
<path d="M362.141 263.756L238.949 264.599L238.959 266.049L362.151 265.206L362.141 263.756Z" fill="#3F3D56"/>
<path d="M200.662 179.064C205.063 179.064 208.63 177.116 208.63 174.712C208.63 172.309 205.063 170.361 200.662 170.361C196.262 170.361 192.695 172.309 192.695 174.712C192.695 177.116 196.262 179.064 200.662 179.064Z" fill="#3F3D56"/>
</g>
<defs>
<clipPath id="clip0">
<rect width="377" height="315" fill="white"/>
</clipPath>
</defs>
</svg>
