<svg width="375" height="302" viewBox="0 0 375 302" fill="none" xmlns="http://www.w3.org/2000/svg">
<path d="M189.727 302C292.05 302 375 295.522 375 287.532C375 279.541 292.05 273.063 189.727 273.063C87.4032 273.063 4.45361 279.541 4.45361 287.532C4.45361 295.522 87.4032 302 189.727 302Z" fill="#3F3D56"/>
<path d="M347.106 260.653L348.843 273.382L336.687 274.539L338.424 258.917L347.106 260.653Z" fill="#A0616A"/>
<path d="M289.802 85.9202C289.802 85.9202 290.959 101.542 290.959 102.121C290.959 102.699 282.856 142.622 282.856 142.622C282.856 142.622 271.279 164.608 282.856 164.029C294.432 163.451 290.959 143.2 290.959 143.2L303.115 109.642L297.905 85.9202L289.802 85.9202Z" fill="#A0616A"/>
<path d="M308.903 260.653L307.167 273.382L319.322 274.539L317.586 258.917L308.903 260.653Z" fill="#A0616A"/>
<path d="M295.59 141.464L292.696 145.515C292.696 145.515 290.96 162.872 292.696 168.658C294.433 174.444 297.906 201.059 297.906 202.795C297.906 204.53 298.484 205.688 297.906 206.266C297.327 206.845 295.59 206.845 296.748 208.002C297.906 209.159 297.906 212.631 297.906 212.631V215.524L305.43 258.339C305.43 258.339 300.8 263.546 304.273 263.546C307.746 263.546 320.48 263.546 319.901 257.76L318.743 257.182C318.743 257.182 317.007 218.995 317.586 217.259C318.165 215.524 317.586 212.052 317.586 212.052C317.586 212.052 316.428 210.316 317.586 209.738C318.743 209.159 318.743 204.53 318.743 204.53L323.953 169.237C323.953 169.237 328.584 192.959 331.478 195.273C334.372 197.587 333.793 203.373 333.793 203.373L336.108 254.289C336.108 254.289 333.793 260.075 336.108 261.232C338.424 262.389 348.264 266.439 348.843 260.653C349.421 254.868 352.316 204.53 352.316 202.216C352.316 199.902 351.737 198.745 352.316 197.009C352.894 195.273 351.737 195.273 352.316 195.273C352.894 195.273 351.158 193.537 351.158 192.38V164.029C351.158 164.029 351.737 158.243 352.316 157.086C352.894 155.929 351.737 154.772 352.316 153.036C352.894 151.3 351.158 145.515 351.158 145.515L325.111 138.572L295.59 141.464Z" fill="#2F2E41"/>
<path d="M315.849 271.068C315.849 271.068 318.743 268.175 314.692 268.175C312.09 268.228 309.528 268.819 307.167 269.911L304.273 280.325C304.273 280.325 292.407 289.872 305.72 288.715C319.033 287.558 317.007 288.426 317.007 288.426C317.007 288.426 321.059 287.268 321.638 286.111C322.216 284.954 320.48 268.175 320.48 268.175C320.48 268.175 318.743 272.804 315.849 271.068Z" fill="#2F2E41"/>
<path d="M340.739 271.068C340.739 271.068 337.845 268.175 341.896 268.175C344.498 268.228 347.06 268.819 349.421 269.911L352.315 280.325C352.315 280.325 364.181 289.872 350.868 288.715C337.555 287.558 337.845 288.426 337.845 288.426C337.845 288.426 333.793 287.268 333.214 286.111C332.635 284.954 336.108 268.175 336.108 268.175C336.108 268.175 337.845 272.804 340.739 271.068Z" fill="#2F2E41"/>
<path d="M303.115 40.2118C311.426 40.2118 318.164 33.4767 318.164 25.1685C318.164 16.8603 311.426 10.1252 303.115 10.1252C294.803 10.1252 288.065 16.8603 288.065 25.1685C288.065 33.4767 294.803 40.2118 303.115 40.2118Z" fill="#A0616A"/>
<path d="M297.905 36.1617C297.905 36.1617 300.221 47.7334 300.221 49.4692C300.221 51.205 310.061 56.4122 310.061 56.4122L321.059 42.5262C321.059 42.5262 314.113 32.6902 314.113 30.3759L297.905 36.1617Z" fill="#A0616A"/>
<path d="M306.588 51.2049C306.588 51.2049 301.543 49.8627 300.014 47.6409C300.014 47.6409 284.013 63.3552 284.013 66.2482L296.748 88.8131C296.748 88.8131 296.748 96.9133 297.905 97.4919C299.063 98.0704 297.905 97.4919 297.905 99.8062C297.905 102.121 294.432 117.164 295.59 119.478C296.748 121.793 297.905 120.057 296.748 123.528C295.59 127 292.696 145.515 292.696 145.515C292.696 145.515 303.115 142.043 318.164 147.829C333.214 153.615 351.158 145.515 351.158 145.515C351.158 145.515 346.527 135.1 347.685 131.629C348.842 128.157 344.791 121.793 344.791 121.793L341.897 68.5625C341.897 68.5625 345.948 44.8405 343.054 43.6833L337.266 41.3689L318.729 39.0917C318.729 39.0917 314.113 50.6263 306.588 51.2049Z" fill="#D0CDE1"/>
<path d="M289.802 62.1981L284.013 66.2482C284.013 66.2482 281.119 74.927 284.013 78.9771C286.907 83.0273 288.065 88.8131 288.065 88.8131L299.642 87.656L289.802 62.1981Z" fill="#D0CDE1"/>
<path d="M291.625 9.27038L289.014 8.22571C289.014 8.22571 294.472 2.21888 302.067 2.74122L299.931 0.390695C299.931 0.390695 305.152 -1.69862 309.898 3.78586C312.393 6.66894 315.28 10.0578 317.08 13.8754H319.876L318.709 16.4435L322.793 19.0117L318.601 18.5504C318.998 20.7675 318.862 23.0472 318.205 25.2015L318.317 27.2314C318.317 27.2314 313.458 19.717 313.458 18.6723V21.284C313.458 21.284 310.848 18.9335 310.848 17.3665L309.424 19.1947L308.712 16.3219L299.931 19.1947L301.355 16.8442L295.896 17.6277L298.032 14.7549C298.032 14.7549 291.862 18.1501 291.625 21.0229C291.387 23.8957 288.302 27.5521 288.302 27.5521L286.878 24.9404C286.878 24.9404 284.742 13.1879 291.625 9.27038Z" fill="#2F2E41"/>
<path d="M295.115 125.911H65.0991V287.422H295.115V125.911Z" fill="#F2F2F2"/>
<path d="M142.216 187.535H84.4619V288.312H142.216V187.535Z" fill="#3F3D56"/>
<path d="M110.702 193.581H95.1448V208.077H110.702V193.581Z" fill="#F2F2F2"/>
<path d="M131.533 193.581H115.976V208.077H131.533V193.581Z" fill="#F2F2F2"/>
<path d="M110.702 213.349H95.1448V228.373H110.702V213.349Z" fill="#F2F2F2"/>
<path d="M131.533 213.349H115.976V228.373H131.533V213.349Z" fill="#F2F2F2"/>
<path d="M134.872 248.379C136.9 248.379 138.544 246.736 138.544 244.708C138.544 242.681 136.9 241.038 134.872 241.038C132.844 241.038 131.199 242.681 131.199 244.708C131.199 246.736 132.844 248.379 134.872 248.379Z" fill="#00F69E"/>
<path d="M275.753 177.969H161.579V273.74H275.753V177.969Z" fill="#3F3D56"/>
<path d="M319.152 156.318H41.0625L59.6041 117.569L63.7536 108.893L69.1822 97.5467L73.3317 88.8706L78.1421 78.8197H297.242L300.083 88.8706L302.536 97.5467L305.745 108.893L308.198 117.569L319.152 156.318Z" fill="#3F3D56"/>
<path d="M169.591 217.679H165.585V242.373H169.591V217.679Z" fill="#00F69E"/>
<path d="M169.591 221.349H165.585V224.353H169.591V221.349Z" fill="#F2F2F2"/>
<path d="M169.591 235.699H165.585V238.702H169.591V235.699Z" fill="#F2F2F2"/>
<path d="M181.276 217.679H171.594V242.373H181.276V217.679Z" fill="#00F69E"/>
<path d="M181.276 221.349H171.594V224.353H181.276V221.349Z" fill="#F2F2F2"/>
<path d="M181.276 235.699H171.594V238.702H181.276V235.699Z" fill="#F2F2F2"/>
<path d="M187.619 217.679H183.613V242.373H187.619V217.679Z" fill="#00F69E"/>
<path d="M187.619 221.349H183.613V224.353H187.619V221.349Z" fill="#F2F2F2"/>
<path d="M187.619 235.699H183.613V238.702H187.619V235.699Z" fill="#F2F2F2"/>
<path d="M193.628 217.679H189.622V242.373H193.628V217.679Z" fill="#00F69E"/>
<path d="M193.628 221.349H189.622V224.353H193.628V221.349Z" fill="#F2F2F2"/>
<path d="M193.628 235.699H189.622V238.702H193.628V235.699Z" fill="#F2F2F2"/>
<path d="M197.488 217.766L193.74 219.179L202.453 242.285L206.202 240.873L197.488 217.766Z" fill="#00F69E"/>
<path d="M198.783 221.201L195.035 222.613L196.094 225.424L199.843 224.011L198.783 221.201Z" fill="#F2F2F2"/>
<path d="M203.847 234.628L200.098 236.04L201.158 238.851L204.907 237.438L203.847 234.628Z" fill="#F2F2F2"/>
<path d="M272.08 217.679H262.399V242.373H272.08V217.679Z" fill="#00F69E"/>
<path d="M272.08 221.349H262.399V224.353H272.08V221.349Z" fill="#F2F2F2"/>
<path d="M272.08 235.699H262.399V238.702H272.08V235.699Z" fill="#F2F2F2"/>
<path d="M260.062 217.679H256.056V242.373H260.062V217.679Z" fill="#00F69E"/>
<path d="M260.062 221.349H256.056V224.353H260.062V221.349Z" fill="#F2F2F2"/>
<path d="M260.062 235.699H256.056V238.702H260.062V235.699Z" fill="#F2F2F2"/>
<path d="M254.053 217.679H250.047V242.373H254.053V217.679Z" fill="#00F69E"/>
<path d="M254.053 221.349H250.047V224.353H254.053V221.349Z" fill="#F2F2F2"/>
<path d="M254.053 235.699H250.047V238.702H254.053V235.699Z" fill="#F2F2F2"/>
<path d="M246.186 217.766L237.472 240.873L241.221 242.285L249.935 219.179L246.186 217.766Z" fill="#00F69E"/>
<path d="M244.891 221.201L243.831 224.011L247.58 225.424L248.64 222.613L244.891 221.201Z" fill="#F2F2F2"/>
<path d="M239.828 234.628L238.768 237.438L242.516 238.85L243.576 236.04L239.828 234.628Z" fill="#F2F2F2"/>
<path d="M275.753 242.373H161.579V244.708H275.753V242.373Z" fill="#F2F2F2"/>
<path d="M232.353 217.679H211.321V242.373H232.353V217.679Z" fill="#00F69E"/>
<path d="M227.179 223.018H216.496V227.69H227.179V223.018Z" fill="#F2F2F2"/>
<path d="M219.667 177.969H217.664V199.325H219.667V177.969Z" fill="#F2F2F2"/>
<path d="M218.666 202.662C220.51 202.662 222.004 201.168 222.004 199.325C222.004 197.482 220.51 195.988 218.666 195.988C216.822 195.988 215.327 197.482 215.327 199.325C215.327 201.168 216.822 202.662 218.666 202.662Z" fill="#F2F2F2"/>
<path d="M302.536 97.5466H69.1821L73.3316 88.8705H300.083L302.536 97.5466Z" fill="#00F69E"/>
<path d="M308.198 117.569H59.604L63.7535 108.893H305.745L308.198 117.569Z" fill="#00F69E"/>
<path d="M332.635 67.4054C332.635 67.4054 329.283 76.021 329.984 84.5453C330.112 86.0715 330.626 87.5401 331.478 88.8131L290.413 108.301C290.413 108.301 271.858 110.221 276.489 118.321C281.119 126.421 297.905 114.271 297.905 114.271C297.905 114.271 341.897 107.906 345.37 101.542C348.843 95.1775 351.158 68.5626 351.158 68.5626L332.635 67.4054Z" fill="#A0616A"/>
<path d="M334.372 43.6833H343.054C343.054 43.6833 349.421 44.8405 351.158 56.4123C352.894 67.984 354.631 70.8769 352.894 70.8769C351.158 70.8769 330.32 70.2984 330.32 69.7198C330.32 69.1412 334.372 43.6833 334.372 43.6833Z" fill="#D0CDE1"/>
<path d="M44.5368 216.525C69.1338 216.525 89.0736 196.594 89.0736 172.007C89.0736 147.421 69.1338 127.489 44.5368 127.489C19.9398 127.489 0 147.421 0 172.007C0 196.594 19.9398 216.525 44.5368 216.525Z" fill="#00F69E"/>
<path opacity="0.1" d="M44.5368 210.293C65.6902 210.293 82.8384 193.152 82.8384 172.007C82.8384 150.863 65.6902 133.722 44.5368 133.722C23.3833 133.722 6.23511 150.863 6.23511 172.007C6.23511 193.152 23.3833 210.293 44.5368 210.293Z" fill="black"/>
<path d="M42.7015 194.599V189.027C39.8835 188.972 36.9683 187.979 35.2678 186.599L36.4338 182.903C38.4546 184.417 40.9052 185.247 43.4303 185.275C46.88 185.275 49.2122 183.013 49.2122 179.868C49.2122 176.834 47.3172 174.958 43.7218 173.303C38.766 171.096 35.705 168.558 35.705 163.758C35.705 159.179 38.5717 155.703 43.0417 154.875V149.303H46.054V154.655C48.3002 154.685 50.4912 155.355 52.3703 156.586L51.1555 160.227C49.3533 158.994 47.2177 158.34 45.0337 158.351C41.2926 158.351 39.8835 160.889 39.8835 163.096C39.8835 165.965 41.6812 167.399 45.9083 169.386C50.9126 171.703 53.4393 174.572 53.4393 179.482C53.4393 183.841 50.7669 187.924 45.7624 188.861V194.599H42.7015Z" fill="#F2F2F2"/>
</svg>
