<svg width="377" height="292" viewBox="0 0 377 292" fill="none" xmlns="http://www.w3.org/2000/svg">
<g clip-path="url(#clip0)">
<rect x="169.564" width="207.436" height="19.7968" fill="#00F69E"/>
<rect x="168.703" y="19.7968" width="208.297" height="230.676" fill="white"/>
<path d="M16.7193 283.464C28.4704 291.931 43.6989 292.356 58.4189 291.316C60.4743 291.171 62.5152 291.001 64.5372 290.817C64.5495 290.814 64.5655 290.815 64.5779 290.812C64.6751 290.803 64.7725 290.794 64.8654 290.788C65.2828 290.749 65.7003 290.71 66.1137 290.671L66.0161 290.857L65.7095 291.435C65.8197 291.242 65.9298 291.052 66.0399 290.859C66.0723 290.801 66.1087 290.743 66.1409 290.685C69.9542 284.048 73.7363 277.167 74.701 269.589C75.6982 261.723 72.8957 252.816 65.9736 248.95C65.0658 248.444 64.1044 248.041 63.1073 247.749C62.6934 247.623 62.2738 247.521 61.8494 247.431C59.2534 246.854 56.5506 246.98 54.0191 247.794C51.4876 248.609 49.2186 250.083 47.4456 252.065C45.6725 254.047 44.4594 256.466 43.9308 259.073C43.4023 261.679 43.5775 264.38 44.4383 266.896C38.5697 260.878 39.6644 251.114 41.6888 242.954C43.7171 234.794 46.1726 225.714 42.0472 218.385C39.7539 214.305 35.7211 211.774 31.1953 210.755C31.0565 210.725 30.9178 210.695 30.7787 210.669C25.3864 209.577 19.7804 210.559 15.0807 213.42C6.42695 218.874 1.98229 229.215 0.539741 239.345C-1.78447 255.645 3.35905 273.837 16.7193 283.464Z" fill="#F2F2F2"/>
<path d="M20.5133 257.334C20.8544 260.929 21.718 264.456 23.0768 267.802C24.3291 270.764 26.0169 273.521 28.0845 275.983C32.3079 281.064 37.8925 284.884 43.9576 287.43C48.595 289.329 53.454 290.635 58.4189 291.316C60.4743 291.171 62.5152 291.001 64.5372 290.817C64.5494 290.814 64.5655 290.815 64.5779 290.812C64.675 290.803 64.7724 290.793 64.8654 290.788C65.2827 290.749 65.7003 290.71 66.1137 290.671L66.016 290.857L65.7095 291.435C65.8197 291.242 65.9297 291.052 66.0399 290.859C66.0723 290.801 66.1086 290.743 66.1408 290.685C62.4187 286.976 59.6396 282.428 58.0365 277.424C56.4334 272.419 56.053 267.104 56.9271 261.922C57.8418 256.777 59.9595 251.92 63.1073 247.749C62.6933 247.623 62.2738 247.521 61.8494 247.431C60.6531 249.067 59.6037 250.805 58.7135 252.626C55.5194 259.118 54.5004 266.467 55.8073 273.584C57.0223 280.025 60.0493 285.985 64.5329 290.765C64.1403 290.737 63.7439 290.705 63.3559 290.669C56.0082 290.047 48.6754 288.467 42.0108 285.231C36.3142 282.532 31.3685 278.473 27.6094 273.413C23.5731 267.845 21.7945 261.149 21.489 254.342C21.165 247.056 22.1104 239.641 23.7731 232.555C25.4709 225.29 28.0511 218.26 31.4563 211.623C31.5325 211.472 31.5479 211.298 31.4993 211.137C31.4507 210.975 31.3419 210.838 31.1953 210.755C31.0732 210.672 30.9234 210.642 30.7787 210.669C30.7079 210.688 30.6422 210.722 30.5865 210.77C30.5309 210.818 30.4867 210.877 30.4573 210.944C30.0373 211.764 29.625 212.585 29.2284 213.415C25.9255 220.326 23.4938 227.62 21.9892 235.131C20.5286 242.376 19.749 249.956 20.5133 257.334Z" fill="white"/>
<path d="M369.439 250.866H175.09C173.085 250.864 171.163 250.067 169.746 248.649C168.329 247.231 167.531 245.309 167.529 243.305V7.56157C167.531 5.55681 168.329 3.63481 169.746 2.21722C171.163 0.799644 173.085 0.00225685 175.09 0H369.439C371.444 0.00225685 373.366 0.799644 374.783 2.21722C376.2 3.63481 376.998 5.55681 377 7.56157V243.305C376.998 245.309 376.2 247.231 374.783 248.649C373.366 250.067 371.444 250.864 369.439 250.866V250.866ZM175.09 0.889597C173.321 0.891598 171.625 1.59518 170.375 2.84598C169.124 4.09678 168.421 5.79267 168.419 7.56157V243.305C168.421 245.074 169.124 246.769 170.375 248.02C171.625 249.271 173.321 249.975 175.09 249.977H369.439C371.208 249.975 372.904 249.271 374.154 248.02C375.405 246.769 376.108 245.074 376.11 243.305V7.56157C376.108 5.79267 375.405 4.09678 374.154 2.84598C372.904 1.59518 371.208 0.891598 369.439 0.889597H175.09Z" fill="#3F3D56"/>
<path d="M376.555 18.4993H167.974V19.3889H376.555V18.4993Z" fill="#3F3D56"/>
<path d="M178.203 13.3439C180.168 13.3439 181.761 11.7508 181.761 9.78556C181.761 7.82032 180.168 6.22717 178.203 6.22717C176.238 6.22717 174.645 7.82032 174.645 9.78556C174.645 11.7508 176.238 13.3439 178.203 13.3439Z" fill="#3F3D56"/>
<path d="M189.321 13.3439C191.286 13.3439 192.879 11.7508 192.879 9.78556C192.879 7.82032 191.286 6.22717 189.321 6.22717C187.356 6.22717 185.763 7.82032 185.763 9.78556C185.763 11.7508 187.356 13.3439 189.321 13.3439Z" fill="#3F3D56"/>
<path d="M200.44 13.3439C202.405 13.3439 203.998 11.7508 203.998 9.78556C203.998 7.82032 202.405 6.22717 200.44 6.22717C198.475 6.22717 196.882 7.82032 196.882 9.78556C196.882 11.7508 198.475 13.3439 200.44 13.3439Z" fill="#3F3D56"/>
<path d="M339.313 53.8206H200.555C199.022 53.8206 197.551 53.2114 196.467 52.127C195.383 51.0426 194.774 49.5718 194.774 48.0382C194.774 46.5047 195.383 45.0339 196.467 43.9495C197.551 42.8651 199.022 42.2559 200.555 42.2559H339.313C340.846 42.2559 342.317 42.8651 343.401 43.9495C344.486 45.0339 345.095 46.5047 345.095 48.0382C345.095 49.5718 344.486 51.0426 343.401 52.127C342.317 53.2114 340.846 53.8206 339.313 53.8206V53.8206ZM200.555 43.1455C199.258 43.1455 198.013 43.6609 197.096 44.5785C196.179 45.4961 195.663 46.7406 195.663 48.0382C195.663 49.3359 196.179 50.5804 197.096 51.498C198.013 52.4155 199.258 52.931 200.555 52.931H339.313C340.611 52.931 341.855 52.4155 342.772 51.498C343.69 50.5804 344.205 49.3359 344.205 48.0382C344.205 46.7406 343.69 45.4961 342.772 44.5785C341.855 43.6609 340.611 43.1455 339.313 43.1455H200.555Z" fill="#3F3D56"/>
<path d="M252.474 135.219H197.771C195.767 135.216 193.845 134.419 192.428 133.001C191.01 131.584 190.213 129.662 190.211 127.657V82.7325C190.213 80.7277 191.01 78.8057 192.428 77.3881C193.845 75.9705 195.767 75.1732 197.771 75.1709H252.474C254.478 75.1732 256.4 75.9705 257.817 77.3881C259.235 78.8057 260.032 80.7277 260.034 82.7325V127.657C260.032 129.662 259.235 131.584 257.817 133.001C256.4 134.419 254.478 135.216 252.474 135.219V135.219ZM197.771 76.0605C196.003 76.0625 194.307 76.7661 193.056 78.0169C191.806 79.2677 191.102 80.9636 191.1 82.7325V127.657C191.102 129.426 191.806 131.122 193.056 132.373C194.307 133.623 196.003 134.327 197.771 134.329H252.474C254.242 134.327 255.938 133.623 257.189 132.373C258.439 131.122 259.143 129.426 259.145 127.657V82.7325C259.143 80.9636 258.439 79.2677 257.189 78.0169C255.938 76.7661 254.242 76.0625 252.474 76.0605H197.771Z" fill="#3F3D56"/>
<path d="M292.01 75.3835H346.652C350.293 75.3835 353.26 78.3956 353.26 82.1318V127.886C353.26 131.623 350.293 134.635 346.652 134.635H292.01C288.37 134.635 285.402 131.623 285.402 127.886V82.1318C285.402 78.3956 288.37 75.3835 292.01 75.3835Z" stroke="#3F3D56"/>
<path d="M252.474 218.841H197.771C195.767 218.838 193.845 218.041 192.428 216.624C191.01 215.206 190.213 213.284 190.211 211.279V166.355C190.213 164.35 191.01 162.428 192.428 161.01C193.845 159.593 195.767 158.795 197.771 158.793H252.474C254.478 158.795 256.4 159.593 257.817 161.01C259.235 162.428 260.032 164.35 260.034 166.355V211.279C260.032 213.284 259.235 215.206 257.817 216.624C256.4 218.041 254.478 218.838 252.474 218.841V218.841ZM197.771 159.683C196.003 159.685 194.307 160.388 193.056 161.639C191.806 162.89 191.102 164.586 191.1 166.355V211.279C191.102 213.048 191.806 214.744 193.056 215.995C194.307 217.246 196.003 217.949 197.771 217.951H252.474C254.242 217.949 255.938 217.246 257.189 215.995C258.439 214.744 259.143 213.048 259.145 211.279V166.355C259.143 164.586 258.439 162.89 257.189 161.639C255.938 160.388 254.242 159.685 252.474 159.683H197.771Z" fill="#3F3D56"/>
<path d="M292.01 160.596H346.652C350.306 160.596 353.26 163.529 353.26 167.137V211.584C353.26 215.193 350.306 218.126 346.652 218.126H292.01C288.356 218.126 285.402 215.193 285.402 211.584V167.137C285.402 163.529 288.356 160.596 292.01 160.596Z" stroke="#3F3D56"/>
<path d="M211.51 124.354C211.5 124.354 211.49 124.353 211.48 124.353L205.258 124.122C205.064 124.117 204.879 124.041 204.737 123.909C204.594 123.777 204.504 123.598 204.483 123.405C204.055 119.584 202.293 100.111 209.676 92.0168C210.721 90.8482 212.012 89.9268 213.458 89.3197C214.903 88.7125 216.465 88.4347 218.031 88.5064C218.095 88.5105 218.158 88.497 218.215 88.4675C218.271 88.4381 218.319 88.3937 218.352 88.3392L219.858 85.9719C219.941 85.8436 220.057 85.741 220.195 85.6757C220.333 85.6103 220.486 85.5849 220.638 85.6022C221.845 85.7482 228.001 86.4371 230.589 85.6876C230.742 85.6425 230.904 85.6435 231.057 85.6903C231.209 85.7371 231.344 85.8277 231.445 85.9508L233.423 88.3685C233.457 88.4123 233.5 88.4472 233.551 88.4705C233.601 88.4938 233.656 88.5047 233.711 88.5023C234.717 88.4821 238.245 88.6769 241.332 92.1304C244.675 95.8699 248.125 104.307 245.576 123.265C245.549 123.459 245.453 123.638 245.306 123.767C245.158 123.897 244.968 123.969 244.772 123.969H239.871C239.677 123.968 239.489 123.898 239.342 123.771C239.195 123.643 239.098 123.468 239.069 123.275L237.468 112.228C237.455 112.137 237.408 112.055 237.337 111.997C237.266 111.939 237.176 111.91 237.084 111.916C236.993 111.921 236.906 111.961 236.843 112.027C236.779 112.094 236.743 112.181 236.741 112.273L236.631 117.46C236.627 117.613 236.58 117.763 236.495 117.891C236.41 118.019 236.29 118.121 236.149 118.183C234.402 118.951 225.172 122.554 214.97 118.042C214.832 117.98 214.714 117.881 214.629 117.756C214.544 117.63 214.495 117.484 214.488 117.333L214.288 112.62C214.284 112.528 214.245 112.441 214.18 112.376C214.115 112.312 214.027 112.274 213.935 112.271C213.843 112.267 213.753 112.299 213.684 112.359C213.614 112.419 213.569 112.504 213.559 112.595L212.315 123.634C212.292 123.831 212.198 124.014 212.049 124.146C211.901 124.279 211.709 124.353 211.51 124.354V124.354Z" fill="#00F69E"/>
<path d="M237.249 205.736H237.244L212.863 205.582C212.686 205.581 212.515 205.515 212.383 205.397C212.251 205.278 212.166 205.116 212.145 204.94L209.693 184.091C209.678 183.956 209.615 183.832 209.515 183.74C209.416 183.648 209.287 183.596 209.151 183.592C207.216 183.528 202.611 183.087 201.656 180.361C200.807 177.933 203.131 174.352 208.566 169.717C208.658 169.637 208.769 169.583 208.888 169.557C209.007 169.532 209.13 169.537 209.247 169.572C209.363 169.607 209.469 169.67 209.555 169.756C209.641 169.843 209.704 169.949 209.738 170.066L212.559 179.8C212.593 179.917 212.664 180.02 212.761 180.093C212.858 180.167 212.977 180.207 213.098 180.209L236.215 180.364C236.336 180.365 236.455 180.327 236.552 180.256C236.65 180.184 236.723 180.083 236.758 179.968L239.898 169.978C239.932 169.867 239.994 169.765 240.076 169.683C240.159 169.6 240.26 169.538 240.371 169.503C240.482 169.467 240.601 169.459 240.716 169.48C240.831 169.5 240.939 169.547 241.032 169.618C243.174 171.254 250.074 176.871 248.939 180.464C248.344 182.346 245.661 183.394 240.964 183.581C240.83 183.586 240.701 183.639 240.602 183.731C240.503 183.822 240.44 183.946 240.425 184.08L237.971 205.093C237.95 205.271 237.865 205.434 237.732 205.553C237.599 205.671 237.427 205.737 237.249 205.736V205.736Z" fill="#00F69E"/>
<path d="M344.089 113.636C336.428 115.111 329.203 118.311 322.962 122.994C322.646 122.154 322.052 121.448 321.278 120.993C320.749 120.665 320.172 120.423 319.568 120.275C319.018 120.135 318.49 120.469 318.005 120.95C317.448 121.567 316.98 122.26 316.615 123.008C308.243 117.261 295.542 113.593 295.542 113.593V112.443C295.552 112.172 295.58 111.902 295.625 111.635C295.668 111.326 295.722 111.053 295.79 110.719C296.867 105.237 301.127 92.7106 301.127 92.7106H305.944L315.283 94.6505L325.789 94.0074L336.371 91.8053L337.743 91.5179C340.031 93.3141 342.628 105.887 343.648 111.24C343.777 111.919 343.878 112.479 343.953 112.892C344.043 113.359 344.089 113.636 344.089 113.636Z" fill="#00F69E"/>
<path d="M315.349 173.124C315.349 173.124 313.112 173.683 309.642 183.082C306.172 192.482 304.943 204.626 304.943 204.626C304.943 204.626 302.992 207.93 311.32 208.151C311.32 208.151 310.65 210.333 315.349 209.998C320.048 209.663 319.371 209.667 319.371 209.667C319.371 209.667 322.392 207.764 323.735 208.099C325.078 208.434 325.917 208.548 327.371 209.777C328.825 211.007 333.471 210.506 333.527 209.556C333.564 209.09 333.564 208.621 333.527 208.154C333.527 208.154 340.632 208.603 339.289 203.455C337.946 198.306 336.827 189.857 336.827 189.857C336.827 189.857 333.192 173.351 329.049 173.127C324.906 172.903 315.349 173.124 315.349 173.124Z" fill="#00F69E"/>
<path d="M85.6741 157.279C93.0428 157.279 99.0162 151.305 99.0162 143.935C99.0162 136.565 93.0428 130.591 85.6741 130.591C78.3055 130.591 72.332 136.565 72.332 143.935C72.332 151.305 78.3055 157.279 85.6741 157.279Z" fill="#2F2E41"/>
<path d="M86.7948 157.304C92.8275 157.304 97.7179 152.413 97.7179 146.38C97.7179 140.346 92.8275 135.455 86.7948 135.455C80.7621 135.455 75.8716 140.346 75.8716 146.38C75.8716 152.413 80.7621 157.304 86.7948 157.304Z" fill="#FFB8B8"/>
<path d="M128.395 179.608C128.221 179.783 128.062 179.971 127.918 180.171L105.876 179.392L103.355 174.663L95.7219 177.536L99.3716 186.341C99.6665 187.052 100.184 187.648 100.847 188.04C101.509 188.432 102.281 188.599 103.047 188.515L127.989 185.776C128.569 186.526 129.363 187.082 130.266 187.37C131.17 187.658 132.139 187.664 133.046 187.388C133.953 187.111 134.754 186.565 135.343 185.822C135.932 185.079 136.28 184.174 136.342 183.228C136.405 182.282 136.177 181.339 135.691 180.525C135.204 179.712 134.482 179.065 133.619 178.672C132.756 178.279 131.794 178.159 130.861 178.326C129.928 178.493 129.067 178.94 128.395 179.608H128.395Z" fill="#FFB8B8"/>
<path d="M92.7861 181.787C92.5052 181.661 92.2548 181.476 92.052 181.244C91.8491 181.013 91.6987 180.74 91.6108 180.445L88.5407 170.139C87.874 168.712 87.8004 167.079 88.336 165.598C88.8715 164.116 89.9726 162.908 91.3977 162.237C92.8228 161.566 94.4558 161.488 95.9384 162.02C97.4211 162.551 98.6325 163.649 99.307 165.073L105.254 174.073C105.424 174.33 105.536 174.62 105.584 174.924C105.631 175.229 105.612 175.54 105.529 175.836C105.445 176.132 105.299 176.407 105.099 176.642C104.9 176.876 104.652 177.065 104.373 177.195L94.5701 181.774C94.2912 181.904 93.9874 181.973 93.6795 181.975C93.3716 181.978 93.0669 181.913 92.7861 181.787V181.787Z" fill="#CCCCCC"/>
<path d="M114.496 286.418L119.285 283.81L111.508 264.096L104.441 267.944L114.496 286.418Z" fill="#FFB8B8"/>
<path d="M112.423 285.519L121.854 280.384L121.854 280.384C122.644 279.954 123.51 279.684 124.403 279.589C125.297 279.495 126.2 279.577 127.062 279.831C127.924 280.085 128.728 280.507 129.427 281.072C130.126 281.637 130.706 282.334 131.136 283.123L131.242 283.318L115.801 291.725L112.423 285.519Z" fill="#2F2E41"/>
<path d="M61.8002 286.439H67.2522L69.8463 265.405L61.7988 265.406L61.8002 286.439Z" fill="#FFB8B8"/>
<path d="M60.4092 284.659L71.1468 284.658H71.1472C72.0459 284.658 72.9357 284.835 73.7659 285.179C74.5961 285.523 75.3505 286.027 75.9859 286.663C76.6214 287.298 77.1254 288.053 77.4693 288.883C77.8132 289.713 77.9902 290.603 77.9902 291.502V291.725L60.4095 291.725L60.4092 284.659Z" fill="#2F2E41"/>
<path d="M95.6807 193.085L97.4597 214.436L117.303 273.974C117.381 274.208 117.41 274.456 117.387 274.702C117.364 274.948 117.29 275.186 117.17 275.402C117.05 275.618 116.887 275.806 116.69 275.955C116.493 276.104 116.268 276.211 116.028 276.268L109.946 277.716C109.556 277.809 109.147 277.767 108.784 277.599C108.421 277.43 108.125 277.144 107.945 276.786L82.5757 226.456C82.493 226.292 82.3615 226.157 82.1994 226.071C82.0373 225.985 81.8524 225.951 81.6701 225.974C81.4879 225.997 81.3172 226.076 81.1816 226.2C81.046 226.323 80.952 226.486 80.9126 226.666L69.7481 277.534C69.6611 277.93 69.4414 278.284 69.1254 278.538C68.8094 278.793 68.416 278.931 68.0105 278.931H62.3526C62.117 278.932 61.8836 278.885 61.6662 278.794C61.4487 278.703 61.2515 278.57 61.0861 278.402C60.9207 278.234 60.7903 278.035 60.7026 277.816C60.6148 277.598 60.5715 277.364 60.5752 277.128C61.0936 241.857 59.3833 201.666 72.9992 195.309L75.2229 189.527L95.6807 193.085Z" fill="#2F2E41"/>
<path d="M74.5825 191.041L72.2897 177.173C71.9101 174.899 72.1092 172.566 72.8684 170.389C73.6277 168.212 74.9227 166.261 76.6341 164.716C78.307 163.186 80.3381 162.102 82.5401 161.564C84.7421 161.026 87.0442 161.05 89.2341 161.636C89.3641 161.671 89.4941 161.707 89.6244 161.743C92.3189 162.515 94.7117 164.095 96.4795 166.27C98.2474 168.446 99.3051 171.111 99.5098 173.907C99.9474 179.929 99.5559 188.667 95.2056 196.089L95.1211 196.233L74.5825 191.041Z" fill="#CCCCCC"/>
<path d="M97.661 140.573C95.1649 142.294 92.2022 143.21 89.1707 143.198C90.2521 143.947 91.4831 144.454 92.7791 144.682C88.7484 145.547 84.5827 145.57 80.5426 144.751C79.6446 144.607 78.7781 144.309 77.9811 143.871C77.5839 143.649 77.2378 143.346 76.9654 142.982C76.693 142.618 76.5004 142.2 76.3999 141.756C76.1315 140.222 77.3265 138.829 78.5684 137.89C80.4699 136.474 82.6624 135.498 84.9871 135.033C87.3119 134.569 89.7108 134.627 92.0104 135.203C93.5119 135.591 95.0161 136.247 95.9914 137.453C96.9667 138.659 97.2556 140.519 96.3264 141.76L97.661 140.573Z" fill="#2F2E41"/>
<path d="M85.4985 130.525C86.7648 125.412 82.2265 119.731 76.9606 119.837C71.6178 119.945 67.6861 124.774 64.9834 129.385C62.2808 133.995 59.5947 139.222 54.6331 141.207C52.9912 141.864 51.212 142.103 49.455 141.903C47.698 141.703 46.018 141.07 44.5659 140.06C43.1137 139.051 41.9346 137.697 41.1344 136.12C40.3342 134.543 39.9378 132.792 39.9808 131.024C39.3146 136.625 40.2376 142.686 43.8495 147.018C47.4614 151.351 54.1822 153.304 59.0129 150.392C61.7719 148.729 63.5353 145.838 64.9892 142.964C66.443 140.089 67.7367 137.057 69.9396 134.706C72.1425 132.356 75.5488 130.796 78.6145 131.785C79.8314 132.177 80.9232 132.943 82.1805 133.175C83.4378 133.408 85.0207 132.811 85.1924 131.543L85.4985 130.525Z" fill="#2F2E41"/>
<path d="M59.1716 223.24C58.7182 222.709 58.3869 222.084 58.2009 221.411C58.0148 220.738 57.9787 220.032 58.095 219.343C58.2113 218.654 58.4772 217.999 58.8739 217.424C59.2707 216.849 59.7886 216.368 60.3913 216.015L69.8666 173.538L79.4785 177.484L67.1422 217.997C67.6681 219.049 67.7899 220.257 67.4845 221.393C67.1792 222.529 66.4679 223.513 65.4854 224.159C64.5029 224.805 63.3176 225.069 62.1539 224.899C60.9902 224.73 59.9291 224.14 59.1716 223.24H59.1716Z" fill="#FFB8B8"/>
<path d="M66.1123 179.632C65.961 179.364 65.8693 179.066 65.8435 178.759C65.8177 178.453 65.8583 178.144 65.9627 177.854L69.6063 167.737C69.9164 166.193 70.8263 164.834 72.1364 163.96C73.4464 163.085 75.0498 162.766 76.5949 163.072C78.14 163.378 79.5007 164.284 80.3786 165.592C81.2566 166.9 81.5802 168.503 81.2784 170.049L80.7249 180.823C80.7091 181.13 80.6272 181.431 80.4848 181.704C80.3424 181.977 80.1429 182.216 79.8998 182.405C79.6567 182.593 79.3758 182.728 79.0761 182.798C78.7764 182.869 78.4651 182.874 78.1633 182.813L67.5561 180.68C67.2542 180.62 66.969 180.495 66.7198 180.314C66.4706 180.133 66.2634 179.9 66.1123 179.632Z" fill="#CCCCCC"/>
<path d="M143.746 174.868L143.588 174.846L144.182 170.522C144.273 169.858 144.097 169.185 143.692 168.651C143.288 168.117 142.687 167.766 142.023 167.675L132.862 166.415C132.198 166.324 131.525 166.5 130.992 166.905C130.458 167.31 130.107 167.91 130.015 168.574L126.754 192.3C126.663 192.964 126.839 193.637 127.244 194.171C127.649 194.705 128.249 195.056 128.913 195.147L138.074 196.407C138.738 196.498 139.411 196.322 139.945 195.917C140.479 195.512 140.83 194.911 140.921 194.248L143.165 177.925L143.322 177.947L143.746 174.868Z" fill="#3F3D56"/>
<path d="M141.735 168.943L140.595 168.787C140.629 168.922 140.63 169.065 140.597 169.201C140.564 169.337 140.498 169.463 140.404 169.568C140.311 169.673 140.194 169.753 140.062 169.801C139.93 169.85 139.789 169.865 139.65 169.846L134.644 169.158C134.505 169.138 134.373 169.085 134.259 169.003C134.146 168.921 134.054 168.812 133.992 168.686C133.931 168.56 133.901 168.421 133.906 168.281C133.911 168.141 133.95 168.004 134.02 167.883L132.955 167.736C132.721 167.704 132.482 167.718 132.254 167.778C132.025 167.838 131.811 167.942 131.622 168.085C131.434 168.228 131.276 168.406 131.156 168.61C131.037 168.814 130.959 169.04 130.927 169.274L127.821 191.872C127.789 192.106 127.803 192.344 127.863 192.573C127.923 192.801 128.027 193.016 128.17 193.204C128.313 193.393 128.491 193.551 128.695 193.67C128.899 193.79 129.125 193.868 129.359 193.9L138.139 195.107C138.612 195.172 139.091 195.047 139.472 194.758C139.852 194.47 140.102 194.042 140.167 193.569V193.569L143.273 170.971C143.338 170.499 143.212 170.019 142.924 169.639C142.636 169.259 142.208 169.008 141.735 168.943L141.735 168.943Z" fill="white"/>
<path d="M135.508 187.705C138.21 187.705 140.4 185.514 140.4 182.812C140.4 180.11 138.21 177.919 135.508 177.919C132.806 177.919 130.616 180.11 130.616 182.812C130.616 185.514 132.806 187.705 135.508 187.705Z" fill="#00F69E"/>
<path d="M135.023 184.679C134.913 184.679 134.806 184.643 134.718 184.577L134.712 184.573L133.563 183.693C133.509 183.652 133.464 183.601 133.431 183.543C133.397 183.485 133.375 183.421 133.366 183.354C133.357 183.287 133.361 183.22 133.379 183.155C133.396 183.09 133.426 183.029 133.467 182.976C133.508 182.922 133.559 182.877 133.617 182.844C133.675 182.81 133.739 182.788 133.806 182.78C133.872 182.771 133.94 182.775 134.005 182.793C134.07 182.81 134.131 182.841 134.184 182.882L134.929 183.453L136.688 181.157C136.729 181.104 136.78 181.06 136.838 181.026C136.896 180.992 136.96 180.971 137.027 180.962C137.093 180.953 137.161 180.957 137.226 180.975C137.291 180.992 137.351 181.022 137.405 181.063L137.394 181.078L137.405 181.063C137.512 181.146 137.582 181.267 137.6 181.402C137.618 181.536 137.582 181.672 137.499 181.779L135.429 184.479C135.382 184.541 135.32 184.592 135.25 184.626C135.179 184.661 135.102 184.679 135.023 184.679Z" fill="white"/>
<path d="M180.596 291.788H11.1515C11.0336 291.788 10.9205 291.741 10.8371 291.657C10.7536 291.574 10.7068 291.461 10.7068 291.343C10.7068 291.225 10.7536 291.112 10.8371 291.028C10.9205 290.945 11.0336 290.898 11.1515 290.898H180.596C180.714 290.898 180.827 290.945 180.911 291.028C180.994 291.112 181.041 291.225 181.041 291.343C181.041 291.461 180.994 291.574 180.911 291.657C180.827 291.741 180.714 291.788 180.596 291.788Z" fill="#3F3D56"/>
</g>
<defs>
<clipPath id="clip0">
<rect width="377" height="291.788" fill="white"/>
</clipPath>
</defs>
</svg>
