<svg width="48" height="51" viewBox="0 0 48 51" fill="none" xmlns="http://www.w3.org/2000/svg">
<path d="M45.2588 34.2042C44.6037 36.2617 44.6037 38.4862 45.2588 40.5436C45.5841 41.566 45.75 42.6367 45.75 43.7144V45.5948C45.7499 46.144 45.5944 46.6809 45.303 47.1376C45.0117 47.5942 44.5976 47.9501 44.1132 48.1603C43.6287 48.3705 43.0957 48.4256 42.5814 48.3185C42.0671 48.2114 41.5946 47.947 41.2238 47.5587L40.5 46.8006L40.0603 47.2612C39.3812 47.9723 38.4603 48.3718 37.5 48.3718C36.5397 48.3718 35.6188 47.9723 34.9397 47.2612L34.5 46.8006L33.7762 47.5587C33.4054 47.947 32.9329 48.2114 32.4186 48.3185C31.9043 48.4256 31.3713 48.3705 30.8868 48.1603C30.4024 47.9501 29.9883 47.5942 29.697 47.1376C29.4056 46.6809 29.2501 46.144 29.25 45.5948V43.7144C29.2501 42.6367 29.416 41.5661 29.7412 40.5436C30.3963 38.4862 30.3963 36.2617 29.7412 34.2042C29.4213 33.1997 29.2558 32.1483 29.2509 31.0894C29.25 31.0708 29.25 31.0521 29.25 31.0335V20.0916C29.25 19.0953 29.4374 18.1088 29.8014 17.1884C30.1654 16.2679 30.699 15.4316 31.3716 14.7272L32.3784 13.6726C33.5527 12.4411 34.2877 10.8248 34.4606 9.09374C34.4869 8.8328 34.5001 8.57058 34.5 8.30818V6.73706H40.5V8.30818C40.4999 8.57058 40.5131 8.8328 40.5394 9.09374C40.7123 10.8248 41.4473 12.4411 42.6216 13.6726L43.6284 14.7272C44.9867 16.1499 45.7499 18.0795 45.75 20.0916V31.0335C45.75 31.0521 45.75 31.0708 45.7491 31.0894C45.7472 31.6088 45.7061 32.1273 45.6262 32.6399C45.5441 33.1709 45.4212 33.694 45.2588 34.2042V34.2042Z" fill="#EBEBE9"/>
<path d="M45.2588 34.2042C44.6037 36.2617 44.6037 38.4862 45.2588 40.5437C45.5841 41.566 45.75 42.6367 45.75 43.7144V45.5948C45.7499 46.144 45.5944 46.6809 45.303 47.1376C45.0117 47.5942 44.5976 47.9502 44.1132 48.1604C43.6287 48.3706 43.0957 48.4256 42.5814 48.3185C42.0671 48.2114 41.5946 47.947 41.2238 47.5587L40.5 46.8007L40.0603 47.2612C39.3812 47.9723 38.4603 48.3718 37.5 48.3718C36.5397 48.3718 35.6188 47.9723 34.9397 47.2612L34.5 46.8007L33.7762 47.5587C33.4054 47.947 32.9329 48.2114 32.4186 48.3185C31.9043 48.4256 31.3713 48.3706 30.8868 48.1604C30.4024 47.9502 29.9883 47.5942 29.697 47.1376C29.4056 46.6809 29.2501 46.144 29.25 45.5948V43.7144C29.2501 42.6367 29.416 41.5661 29.7412 40.5437C30.3953 38.486 30.3953 36.2618 29.7412 34.2042C29.4213 33.1997 29.2558 32.1483 29.2509 31.0894H29.25V20.0916C29.25 19.0953 29.4374 18.1088 29.8014 17.1884C30.1654 16.268 30.699 15.4317 31.3716 14.7272L32.3784 13.6726C32.992 13.0304 33.4899 12.2777 33.8484 11.4504H41.1516C41.5101 12.2777 42.008 13.0304 42.6216 13.6726L43.6284 14.7272C44.7816 15.9346 45.5116 17.5145 45.7003 19.2108C45.7333 19.5031 45.7499 19.7972 45.75 20.0916V31.0894H45.7491C45.7472 31.6089 45.7061 32.1273 45.6262 32.6399C45.5441 33.1709 45.4212 33.694 45.2588 34.2042V34.2042Z" fill="#7EB457"/>
<path d="M45.2588 34.2042C44.6037 36.2617 44.6037 38.4862 45.2588 40.5437C45.5841 41.566 45.75 42.6367 45.75 43.7144V45.5948C45.7499 46.144 45.5944 46.6809 45.303 47.1376C45.0117 47.5942 44.5976 47.9502 44.1132 48.1604C43.6287 48.3706 43.0957 48.4256 42.5814 48.3185C42.0671 48.2114 41.5946 47.947 41.2238 47.5587L40.5 46.8006L40.0603 47.2612C39.3812 47.9723 38.4603 48.3718 37.5 48.3718C36.5397 48.3718 35.6188 47.9723 34.9397 47.2612L34.5 46.8006L33.7762 47.5587C33.4054 47.947 32.9329 48.2114 32.4186 48.3185C31.9043 48.4256 31.3713 48.3706 30.8868 48.1604C30.4024 47.9502 29.9883 47.5942 29.697 47.1376C29.4056 46.6809 29.2501 46.144 29.25 45.5948V43.7144C29.2501 42.6367 29.416 41.5661 29.7412 40.5437C30.2042 39.0909 30.3425 37.5462 30.1453 36.0286C36.075 32.3964 41.4694 26.9741 45.7003 19.2108C45.7333 19.5031 45.7499 19.7972 45.75 20.0916V31.0894H45.7491C45.7472 31.6089 45.7061 32.1273 45.6262 32.6399C45.5441 33.1709 45.4212 33.694 45.2588 34.2042V34.2042Z" fill="#79AD54"/>
<path d="M29.25 20.0916H45.75V31.0894H29.25V20.0916Z" fill="#D0D24B"/>
<path d="M45.75 20.0916V31.0894H36.631C39.7941 28.1377 42.6947 24.5084 45.211 20.0916H45.75Z" fill="#C7C934"/>
<path d="M31.5 22.4483H33V24.0194H31.5V22.4483Z" fill="#DEE051"/>
<path d="M31.5 25.5905H33V28.7328H31.5V25.5905Z" fill="#DEE051"/>
<path d="M40.5393 9.09374H34.4606C34.4869 8.8328 34.5 8.57058 34.4999 8.30818V6.73706H40.4999V8.30818C40.4999 8.57058 40.513 8.8328 40.5393 9.09374V9.09374Z" fill="#E0E0DE"/>
<path d="M35.25 2.80927H39.75C39.9489 2.80927 40.1397 2.89203 40.2803 3.03935C40.421 3.18667 40.5 3.38648 40.5 3.59483V6.73707H34.5V3.59483C34.5 3.38648 34.579 3.18667 34.7197 3.03935C34.8603 2.89203 35.0511 2.80927 35.25 2.80927Z" fill="#7EB457"/>
<path d="M33.75 5.95151H41.25V7.52263H33.75V5.95151Z" fill="#EBEBE9"/>
<path d="M18.2587 34.2042C17.6037 36.2617 17.6037 38.4862 18.2587 40.5436C18.5841 41.566 18.75 42.6367 18.75 43.7144V45.5948C18.7499 46.144 18.5944 46.6809 18.303 47.1376C18.0117 47.5942 17.5976 47.9501 17.1132 48.1603C16.6287 48.3705 16.0957 48.4256 15.5814 48.3185C15.0671 48.2114 14.5946 47.947 14.2238 47.5587L13.5 46.8006L13.0603 47.2612C12.3812 47.9723 11.4603 48.3718 10.5 48.3718C9.53973 48.3718 8.61878 47.9723 7.93969 47.2612L7.5 46.8006L6.77625 47.5587C6.40539 47.947 5.93295 48.2114 5.41864 48.3185C4.90434 48.4256 4.37126 48.3705 3.88682 48.1603C3.40237 47.9501 2.9883 47.5942 2.69695 47.1376C2.40561 46.6809 2.25007 46.144 2.25 45.5948V43.7144C2.25011 42.6367 2.41598 41.5661 2.74125 40.5436C3.06645 39.5216 3.23232 38.4513 3.2325 37.3739C3.23232 36.2966 3.06645 35.2263 2.74125 34.2042C2.4213 33.1997 2.2558 32.1483 2.25094 31.0894C2.25 31.0708 2.25 31.0521 2.25 31.0335V20.0916C2.25001 19.0953 2.43738 18.1088 2.80139 17.1884C3.16541 16.2679 3.69896 15.4316 4.37156 14.7272L5.37844 13.6726C5.99195 13.0304 6.48992 12.2777 6.84844 11.4504C7.17344 10.7049 7.38022 9.90893 7.46063 9.09374C7.48693 8.8328 7.50007 8.57058 7.5 8.30818V6.73706H13.5V8.30818C13.4999 8.57058 13.5131 8.8328 13.5394 9.09374C13.7123 10.8248 14.4473 12.4411 15.6216 13.6726L16.6284 14.7272C17.9867 16.1499 18.7499 18.0795 18.75 20.0916V31.0335C18.75 31.0521 18.75 31.0708 18.7491 31.0894C18.7472 31.6088 18.7061 32.1273 18.6262 32.6399C18.5441 33.1709 18.4212 33.694 18.2587 34.2042V34.2042Z" fill="#EBEBE9"/>
<path d="M18.2587 34.2042C17.6037 36.2617 17.6037 38.4862 18.2587 40.5437C18.5841 41.566 18.75 42.6367 18.75 43.7144V45.5948C18.7499 46.144 18.5944 46.6809 18.303 47.1376C18.0117 47.5942 17.5976 47.9502 17.1132 48.1604C16.6287 48.3706 16.0957 48.4256 15.5814 48.3185C15.0671 48.2114 14.5946 47.947 14.2238 47.5587L13.5 46.8007L13.0603 47.2612C12.3812 47.9723 11.4603 48.3718 10.5 48.3718C9.53973 48.3718 8.61878 47.9723 7.93969 47.2612L7.5 46.8007L6.77625 47.5587C6.40539 47.947 5.93295 48.2114 5.41864 48.3185C4.90434 48.4256 4.37126 48.3706 3.88682 48.1604C3.40237 47.9502 2.9883 47.5942 2.69695 47.1376C2.40561 46.6809 2.25007 46.144 2.25 45.5948V43.7144C2.25011 42.6367 2.41598 41.5661 2.74125 40.5437C3.06645 39.5216 3.23232 38.4513 3.2325 37.3739C3.23249 36.924 3.20337 36.4745 3.14531 36.0287C3.06502 35.4087 2.92975 34.7979 2.74125 34.2042C2.4213 33.1997 2.2558 32.1483 2.25094 31.0894H2.25V20.0916C2.25001 19.0953 2.43738 18.1088 2.80139 17.1884C3.16541 16.268 3.69896 15.4317 4.37156 14.7272L5.37844 13.6726C5.99195 13.0304 6.48992 12.2777 6.84844 11.4504H14.1516C14.5101 12.2777 15.008 13.0304 15.6216 13.6726L16.6284 14.7272C17.7816 15.9346 18.5116 17.5145 18.7003 19.2108C18.7333 19.5031 18.7499 19.7972 18.75 20.0916V31.0894H18.7491C18.7472 31.6089 18.7061 32.1273 18.6262 32.6399C18.5441 33.1709 18.4212 33.694 18.2587 34.2042V34.2042Z" fill="#FA6D00"/>
<path d="M18.2587 34.2042C17.6037 36.2617 17.6037 38.4862 18.2587 40.5437C18.5841 41.566 18.75 42.6367 18.75 43.7144V45.5948C18.7499 46.144 18.5944 46.6809 18.303 47.1376C18.0117 47.5942 17.5976 47.9502 17.1132 48.1604C16.6287 48.3706 16.0957 48.4256 15.5814 48.3185C15.0671 48.2114 14.5946 47.947 14.2238 47.5587L13.5 46.8006L13.0603 47.2612C12.3812 47.9723 11.4603 48.3718 10.5 48.3718C9.53973 48.3718 8.61878 47.9723 7.93969 47.2612L7.5 46.8006L6.77625 47.5587C6.40539 47.947 5.93295 48.2114 5.41864 48.3185C4.90434 48.4256 4.37126 48.3706 3.88682 48.1604C3.40237 47.9502 2.9883 47.5942 2.69695 47.1376C2.40561 46.6809 2.25007 46.144 2.25 45.5948V43.7144C2.25011 42.6367 2.41598 41.5661 2.74125 40.5437C3.06645 39.5216 3.23232 38.4513 3.2325 37.3739C3.23249 36.924 3.20337 36.4745 3.14531 36.0286C9.075 32.3964 14.4694 26.9741 18.7003 19.2108C18.7333 19.5031 18.7499 19.7972 18.75 20.0916V31.0894H18.7491C18.7472 31.6089 18.7061 32.1273 18.6262 32.6399C18.5441 33.1709 18.4212 33.694 18.2587 34.2042V34.2042Z" fill="#F86400"/>
<path d="M2.25 20.0916H18.75V31.0894H2.25V20.0916Z" fill="#F98500"/>
<path d="M18.75 20.0916V31.0894H9.63098C12.7941 28.1377 15.6947 24.5084 18.211 20.0916H18.75Z" fill="#F77C00"/>
<path d="M4.5 22.4483H6V24.0194H4.5V22.4483Z" fill="#FF9419"/>
<path d="M4.5 25.5905H6V28.7328H4.5V25.5905Z" fill="#FF9419"/>
<path d="M13.5394 9.09374H7.46069C7.487 8.8328 7.50014 8.57058 7.50007 8.30818V6.73706H13.5001V8.30818C13.5 8.57058 13.5131 8.8328 13.5394 9.09374V9.09374Z" fill="#E0E0DE"/>
<path d="M8.25 2.80927H12.75C12.9489 2.80927 13.1397 2.89203 13.2803 3.03935C13.421 3.18667 13.5 3.38648 13.5 3.59483V6.73707H7.5V3.59483C7.5 3.38648 7.57902 3.18667 7.71967 3.03935C7.86032 2.89203 8.05109 2.80927 8.25 2.80927V2.80927Z" fill="#FA6D00"/>
<path d="M6.75 5.95151H14.25V7.52263H6.75V5.95151Z" fill="#EBEBE9"/>
<path d="M31.7588 34.2042C31.1037 36.2617 31.1037 38.4862 31.7588 40.5436C32.0841 41.566 32.25 42.6367 32.25 43.7144V45.5948C32.2499 46.144 32.0944 46.6809 31.803 47.1376C31.5117 47.5942 31.0976 47.9501 30.6132 48.1603C30.1287 48.3705 29.5957 48.4256 29.0814 48.3185C28.5671 48.2114 28.0946 47.947 27.7238 47.5587L27 46.8006L26.5603 47.2612C25.8812 47.9723 24.9603 48.3718 24 48.3718C23.0397 48.3718 22.1188 47.9723 21.4397 47.2612L21 46.8006L20.2762 47.5587C19.9054 47.947 19.4329 48.2114 18.9186 48.3185C18.4043 48.4256 17.8713 48.3705 17.3868 48.1603C16.9024 47.9501 16.4883 47.5942 16.197 47.1376C15.9056 46.6809 15.7501 46.144 15.75 45.5948V43.7144C15.7501 42.6367 15.916 41.5661 16.2413 40.5436C16.8963 38.4862 16.8963 36.2617 16.2413 34.2042C15.9213 33.1997 15.7558 32.1483 15.7509 31.0894C15.75 31.0708 15.75 31.0521 15.75 31.0335V20.0916C15.75 19.0953 15.9374 18.1088 16.3014 17.1884C16.6654 16.2679 17.199 15.4316 17.8716 14.7272L18.8784 13.6726C20.0527 12.4411 20.7877 10.8248 20.9606 9.09374C20.9869 8.8328 21.0001 8.57058 21 8.30818V6.73706H27V8.30818C26.9999 8.57058 27.0131 8.8328 27.0394 9.09374C27.2123 10.8248 27.9473 12.4411 29.1216 13.6726L30.1284 14.7272C31.4867 16.1499 32.2499 18.0795 32.25 20.0916V31.0335C32.25 31.0521 32.25 31.0708 32.2491 31.0894C32.2472 31.6088 32.2061 32.1273 32.1262 32.6399C32.0441 33.1709 31.9212 33.694 31.7588 34.2042V34.2042Z" fill="#EBEBE9"/>
<path d="M31.7588 34.2042C31.1037 36.2617 31.1037 38.4862 31.7588 40.5437C32.0841 41.566 32.25 42.6367 32.25 43.7144V45.5948C32.2499 46.144 32.0944 46.6809 31.803 47.1376C31.5117 47.5942 31.0976 47.9502 30.6132 48.1604C30.1287 48.3706 29.5957 48.4256 29.0814 48.3185C28.5671 48.2114 28.0946 47.947 27.7238 47.5587L27 46.8007L26.5603 47.2612C25.8812 47.9723 24.9603 48.3718 24 48.3718C23.0397 48.3718 22.1188 47.9723 21.4397 47.2612L21 46.8007L20.2762 47.5587C19.9054 47.947 19.4329 48.2114 18.9186 48.3185C18.4043 48.4256 17.8713 48.3706 17.3868 48.1604C16.9024 47.9502 16.4883 47.5942 16.197 47.1376C15.9056 46.6809 15.7501 46.144 15.75 45.5948V43.7144C15.7501 42.6367 15.916 41.5661 16.2413 40.5437C16.8953 38.486 16.8953 36.2618 16.2413 34.2042C15.9213 33.1997 15.7558 32.1483 15.7509 31.0894H15.75V20.0916C15.75 19.0953 15.9374 18.1088 16.3014 17.1884C16.6654 16.268 17.199 15.4317 17.8716 14.7272L18.8784 13.6726C19.492 13.0304 19.9899 12.2777 20.3484 11.4504H27.6516C28.0101 12.2777 28.508 13.0304 29.1216 13.6726L30.1284 14.7272C31.2816 15.9346 32.0116 17.5145 32.2003 19.2108C32.2333 19.5031 32.2499 19.7972 32.25 20.0916V31.0894H32.2491C32.2472 31.6089 32.2061 32.1273 32.1262 32.6399C32.0441 33.1709 31.9212 33.694 31.7588 34.2042V34.2042Z" fill="#693924"/>
<path d="M31.7588 34.2042C31.1037 36.2617 31.1037 38.4862 31.7588 40.5437C32.0841 41.566 32.25 42.6367 32.25 43.7144V45.5948C32.2499 46.144 32.0944 46.6809 31.803 47.1376C31.5117 47.5942 31.0976 47.9502 30.6132 48.1604C30.1287 48.3706 29.5957 48.4256 29.0814 48.3185C28.5671 48.2114 28.0946 47.947 27.7238 47.5587L27 46.8006L26.5603 47.2612C25.8812 47.9723 24.9603 48.3718 24 48.3718C23.0397 48.3718 22.1188 47.9723 21.4397 47.2612L21 46.8006L20.2762 47.5587C19.9054 47.947 19.4329 48.2114 18.9186 48.3185C18.4043 48.4256 17.8713 48.3706 17.3868 48.1604C16.9024 47.9502 16.4883 47.5942 16.197 47.1376C15.9056 46.6809 15.7501 46.144 15.75 45.5948V43.7144C15.7501 42.6367 15.916 41.5661 16.2413 40.5437C16.7042 39.0909 16.8425 37.5462 16.6453 36.0286C22.575 32.3964 27.9694 26.9741 32.2003 19.2108C32.2333 19.5031 32.2499 19.7972 32.25 20.0916V31.0894H32.2491C32.2472 31.6089 32.2061 32.1273 32.1262 32.6399C32.0441 33.1709 31.9212 33.694 31.7588 34.2042V34.2042Z" fill="#5C2E1A"/>
<path d="M15.75 20.0916H32.25V31.0894H15.75V20.0916Z" fill="#F35244"/>
<path d="M32.25 20.0916V31.0894H23.131C26.2941 28.1377 29.1947 24.5084 31.711 20.0916H32.25Z" fill="#E64C3F"/>
<path d="M18 22.4483H19.5V24.0194H18V22.4483Z" fill="#FC685B"/>
<path d="M18 25.5905H19.5V28.7328H18V25.5905Z" fill="#FC685B"/>
<path d="M27.0394 9.09374H20.9607C20.987 8.8328 21.0001 8.57058 21.0001 8.30818V6.73706H27.0001V8.30818C27 8.57058 27.0131 8.8328 27.0394 9.09374V9.09374Z" fill="#E0E0DE"/>
<path d="M21.75 2.80927H26.25C26.4489 2.80927 26.6397 2.89203 26.7803 3.03935C26.921 3.18667 27 3.38648 27 3.59483V6.73707H21V3.59483C21 3.38648 21.079 3.18667 21.2197 3.03935C21.3603 2.89203 21.5511 2.80927 21.75 2.80927Z" fill="#F35244"/>
<path d="M20.25 5.95151H27.75V7.52263H20.25V5.95151Z" fill="#EBEBE9"/>
<path d="M39.75 24.805V30.5661C39.7501 32.46 39.329 34.328 38.52 36.0218C37.847 37.4339 37.4412 38.9691 37.3247 40.5427L36.75 48.3718H27.75L27.1753 40.5427C27.0591 38.969 26.6532 37.4339 25.98 36.0218C25.1704 34.3282 24.7493 32.4601 24.75 30.5661V24.805H39.75Z" fill="#EBEBE9"/>
<path d="M39.75 28.7328V30.5661C39.75 30.9186 39.735 31.2701 39.7069 31.6197C39.5798 33.1523 39.1771 34.6459 38.52 36.0218C37.847 37.4339 37.4412 38.9691 37.3247 40.5427L36.75 48.3718H27.75L27.4547 44.3497L27.1753 40.5427C27.0591 38.969 26.6532 37.4338 25.98 36.0218C25.1704 34.3282 24.7493 32.4601 24.75 30.5661V28.7328H39.75Z" fill="#F98500"/>
<path d="M39.7069 31.6197C39.5798 33.1523 39.1771 34.6459 38.52 36.0217C37.8471 37.4339 37.4412 38.9691 37.3247 40.5426L36.75 48.3717H27.75L27.4547 44.3497C31.8891 41.3469 36.0572 37.1922 39.7069 31.6197V31.6197Z" fill="#F77C00"/>
<path d="M30 42.0873H31.5V43.6584H30V42.0873Z" fill="#FF9419"/>
<path d="M32.25 38.945H33.75V40.5162H32.25V38.945Z" fill="#FF9419"/>
<path d="M30.75 33.4461H32.25V35.0172H30.75V33.4461Z" fill="#FF9419"/>
</svg>
