<svg width="48" height="52" viewBox="0 0 48 52" fill="none" xmlns="http://www.w3.org/2000/svg">
<path d="M45.2999 30.4186C45.2999 31.3272 44.9486 32.149 44.3806 32.7438C43.8118 33.3387 43.0272 33.7066 42.1606 33.7066H5.83917C4.10611 33.7066 2.69995 32.2349 2.69995 30.4186C2.69995 29.932 2.80045 29.4711 2.98101 29.0561C3.13814 28.6954 3.35479 28.3703 3.61917 28.0933C4.18804 27.4985 4.97264 27.1305 5.83917 27.1305H42.1607C43.4303 27.1305 44.5242 27.9195 45.0189 29.0561C45.1994 29.4711 45.2999 29.932 45.2999 30.4186Z" fill="#884D00"/>
<path d="M45.0189 29.0561C44.8618 29.4159 44.6442 29.7419 44.3808 30.0179C43.8119 30.6128 43.0273 30.9807 42.1608 30.9807H5.83924C4.5707 30.9807 3.47683 30.1917 2.98108 29.0562C3.1382 28.6955 3.35477 28.3704 3.61924 28.0934C4.18811 27.4986 4.9727 27.1306 5.83924 27.1306H42.1608C43.4303 27.1305 44.5241 27.9196 45.0189 29.0561Z" fill="#AA6100"/>
<path d="M48 36.3608C48 40.5974 46.1274 43.7453 43.1004 45.8334C40.0725 47.9225 35.8902 48.9518 31.2707 48.9518H16.7292C7.49034 48.9518 0 44.8339 0 36.3608C0 35.8886 0.112219 35.4409 0.315187 35.0383C0.486938 34.6949 0.724031 34.3852 1.01194 34.1214C1.6365 33.548 2.50106 33.1934 3.45441 33.1934H44.5457C45.9382 33.1934 47.1384 33.9497 47.6849 35.0383C47.8878 35.441 48 35.8887 48 36.3608Z" fill="#FFA733"/>
<path d="M47.6848 35.0384C47.033 37.8593 45.3995 40.0567 43.1004 41.643C40.0725 43.7321 35.8902 44.7613 31.2707 44.7613H16.7292C8.60072 44.7613 1.82672 41.5745 0.315186 35.0384C0.486936 34.695 0.724029 34.3853 1.01194 34.1215C1.6365 33.5482 2.50106 33.1935 3.4544 33.1935H44.5457C45.9382 33.1935 47.1383 33.9499 47.6848 35.0384Z" fill="#FFB655"/>
<path d="M37.3488 25.7508L29.2281 34.2565C29.0241 34.4691 28.8065 34.6572 28.5762 34.8197C26.8568 36.039 24.5013 35.852 22.978 34.2565L14.8573 25.7508H37.3488Z" fill="#EEBF00"/>
<path d="M37.3488 25.7508L29.2281 34.2565C29.0242 34.4691 28.8065 34.6571 28.5762 34.8197C27.9566 34.5989 27.375 34.2299 26.8812 33.7117L19.2806 25.7508H37.3488Z" fill="#FFD422"/>
<path d="M47.0886 26.9374C47.0886 27.383 47.0184 27.8388 46.8661 28.2834C46.2699 30.0261 44.6735 30.7027 43.4293 29.7399L41.9373 28.586C40.8961 27.7796 39.5681 28.1097 38.8147 29.3628L38.7512 29.4681C38.0281 30.672 36.7674 31.0298 35.7379 30.3245L32.3967 28.0361C31.6258 27.5087 30.7017 27.5659 29.9719 28.1884L27.2943 30.4697C26.5254 31.1248 25.5457 31.1524 24.7562 30.5402L21.7019 28.1689C20.9213 27.5629 19.9533 27.5822 19.1873 28.22L16.4063 30.5331C15.6597 31.1535 14.721 31.1892 13.9492 30.6281L10.3484 28.0075C9.63996 27.4924 8.78618 27.478 8.06796 27.9697L4.70927 30.2704C2.47268 30.572 1.38471 28.8518 1.38471 28.8518C0.849019 27.8767 0.795301 26.7208 1.08518 25.7508C1.42961 24.5918 2.26399 23.6985 3.34905 23.6985H44.6521C45.7157 23.6985 46.5656 24.5785 46.915 25.7457C47.0281 26.1197 47.0886 26.5235 47.0886 26.9374Z" fill="#6DC82A"/>
<path d="M46.915 25.7457C46.9004 25.7967 46.8838 25.8468 46.8662 25.898C46.27 27.6416 44.6736 28.3183 43.4295 27.3555L41.9374 26.2005C40.8962 25.3951 39.5682 25.7252 38.8148 26.9773L38.7513 27.0836C38.0282 28.2875 36.7675 28.6453 35.738 27.94L32.3969 25.6516C31.626 25.1232 30.7019 25.1814 29.972 25.8039L27.2944 28.0852C26.5255 28.7403 25.5458 28.7669 24.7563 28.1547L21.702 25.7835C20.9214 25.1774 19.9534 25.1978 19.1874 25.8345L16.4063 28.1485C15.6598 28.7679 14.721 28.8046 13.9492 28.2436L10.3485 25.6229C9.63999 25.1068 8.78621 25.0925 8.06799 25.5851L4.7093 27.8847C2.4727 28.1873 1.38474 26.4661 1.38474 26.4661C1.25883 26.2362 1.15936 25.996 1.08521 25.7507C1.42964 24.5917 2.26402 23.6983 3.34908 23.6983H44.6521C45.7156 23.6984 46.5656 24.5784 46.915 25.7457Z" fill="#7ED63E"/>
<path d="M46.2553 21.5949C46.2621 21.9353 46.2192 22.2634 46.1353 22.5731C45.7576 23.9508 44.5456 24.9586 43.1093 24.9586C37.4691 24.9586 22.4465 24.8258 20.1808 24.9044C20.1301 24.9065 20.0793 24.9085 20.0296 24.9095C17.1685 25.0229 16.5166 25.5033 16.5166 27.1008V32.9461C16.5166 33.2466 16.4005 33.5195 16.2122 33.7167C16.0239 33.914 15.7643 34.0356 15.4774 34.0356C14.9026 34.0356 14.4372 34.5231 14.4372 35.1251V37.6712C14.4372 37.9297 14.4079 38.1802 14.3513 38.4214C14.0303 39.8135 12.831 40.8468 11.3907 40.8468H11.3136C9.67618 40.8468 8.35102 39.4537 8.3559 37.7386L8.36958 33.1301C8.37052 32.7765 8.50815 32.4555 8.72968 32.2246C8.95214 31.9925 9.25758 31.8495 9.59621 31.8495C10.2735 31.8495 10.8228 31.274 10.8228 30.5647V27.1008C10.8228 25.9173 9.90755 24.9586 8.77758 24.9586H4.95033C3.22805 24.9586 1.77896 23.5349 1.7438 21.731C1.70865 19.88 3.1314 18.3673 4.8908 18.3673H43.0469C44.7701 18.3673 46.2211 19.791 46.2553 21.5949Z" fill="#FF3501"/>
<path d="M46.2551 21.5949C46.262 21.9353 46.219 22.2634 46.1351 22.5731C40.1642 22.567 25.8968 22.4433 23.6935 22.5189C20.7037 22.6221 20.0294 23.0912 20.0294 24.7164V24.9095C17.1683 25.0229 16.5165 25.5033 16.5165 27.1008V32.9461C16.5165 33.2466 16.4003 33.5195 16.2121 33.7167C16.0238 33.914 15.7642 34.0356 15.4773 34.0356C14.9025 34.0356 14.437 34.5231 14.437 35.1251V37.6711C14.437 37.9297 14.4078 38.1802 14.3512 38.4214C12.9401 38.1832 11.8638 36.8985 11.8687 35.3531L11.8823 30.7456C11.8833 30.3909 12.0209 30.0709 12.2424 29.84C12.4649 29.608 12.7703 29.4649 13.109 29.4649C13.7862 29.4649 14.3356 28.8895 14.3356 28.1801V24.7163C14.3356 23.5327 13.4203 22.5741 12.2903 22.5741H8.4631C6.74082 22.5741 5.29172 21.1503 5.25657 19.3464C5.24972 19.006 5.29266 18.678 5.3776 18.3673H43.0467C44.7699 18.3673 46.221 19.791 46.2551 21.5949Z" fill="#FF5023"/>
<path d="M28.2536 15.0169L21.2911 22.3125C20.5935 23.0432 19.7708 23.5635 18.8945 23.8711C16.7341 24.6357 14.2516 24.1154 12.5323 22.3125L5.56702 15.0169H28.2536Z" fill="#EEBF00"/>
<path d="M28.2535 15.0169L21.291 22.3125C20.5934 23.0432 19.7707 23.5635 18.8944 23.8711C18.0191 23.5635 17.1965 23.0432 16.4998 22.3125L9.53442 15.0169H28.2535Z" fill="#FFD422"/>
<path d="M48 16.0431C48 16.0973 47.998 16.1504 47.9951 16.2036C47.9571 16.8894 47.676 17.5077 47.2408 17.9636C46.7714 18.4553 46.1235 18.7588 45.4072 18.7588H2.59275C1.16119 18.7587 0 17.5425 0 16.0431C0 12.7888 1.44028 10.3389 3.61537 8.49604C5.38059 6.99974 7.63078 5.903 9.98644 5.09869C16.5771 2.8512 24 2.89303 24 2.89303C24 2.89303 48 2.75713 48 16.0431Z" fill="#FFA733"/>
<path d="M48 16.0431C48 16.0973 47.998 16.1504 47.9951 16.2036H7.86204C6.43057 16.2036 5.26929 14.9873 5.26929 13.4879C5.26929 10.2336 6.70957 7.78363 8.88466 5.94091C9.23397 5.64446 9.60185 5.3645 9.98632 5.09869C16.577 2.8512 24 2.89303 24 2.89303C24 2.89303 48 2.75713 48 16.0431Z" fill="#FFB655"/>
<path d="M36.8999 7.6439C37.3161 8.10522 37.2964 8.83255 36.8561 9.26854C36.4156 9.70443 35.7212 9.68381 35.3051 9.22258C34.8889 8.76136 34.1229 7.16304 34.5633 6.72706C35.0037 6.29107 36.4838 7.18249 36.8999 7.6439Z" fill="#FFF5CC"/>
<path d="M31.0842 13.3234C31.3014 13.9159 31.0189 14.5807 30.4532 14.8082C29.8876 15.0357 29.2529 14.7399 29.0357 14.1474C28.8184 13.5549 28.6908 11.7715 29.2564 11.544C29.8221 11.3166 30.867 12.7309 31.0842 13.3234Z" fill="#FFF5CC"/>
<path d="M25.0971 8.5968C25.0971 9.23154 24.6059 9.74598 24 9.74598C23.394 9.74598 22.9028 9.23144 22.9028 8.5968C22.9028 7.96207 23.3941 6.24945 24 6.24945C24.606 6.24935 25.0971 7.96207 25.0971 8.5968Z" fill="#FFF5CC"/>
<path d="M19.0644 14.0436C18.9129 14.6581 18.3144 15.0276 17.7277 14.8689C17.1411 14.7102 16.7883 14.0833 16.9398 13.4688C17.0913 12.8543 17.9758 11.3247 18.5626 11.4834C19.1493 11.6421 19.2159 13.4292 19.0644 14.0436Z" fill="#FFF5CC"/>
<path d="M13.0283 9.03779C12.7641 9.60889 12.108 9.8477 11.5625 9.57099C11.0173 9.29427 10.7893 8.60701 11.0535 8.03571C11.3177 7.46461 12.4726 6.14742 13.018 6.42423C13.5634 6.70104 13.2925 8.46669 13.0283 9.03779Z" fill="#FFF5CC"/>
</svg>
