<svg width="48" height="52" viewBox="0 0 48 52" fill="none" xmlns="http://www.w3.org/2000/svg">
<g clip-path="url(#clip0)">
<path d="M37.2188 20.2711L39.0938 51.2026C39.2618 51.2026 39.4291 51.1711 39.5875 51.1088C39.6256 51.099 39.6733 51.0879 39.7295 51.0742C40.5068 50.886 42.5718 50.3859 44.4405 48.7769C46.8024 46.7434 48 43.7601 48 39.9102V20.2711H37.2188Z" fill="#FF7038"/>
<path d="M0 20.2711V35.9824C0 36.6091 0.378656 37.1672 0.943687 37.3733L38.6312 51.1206C38.7816 51.1756 38.9378 51.2026 39.0937 51.2026H39.0938V20.2711H0Z" fill="#FFDE46"/>
<path d="M22.2188 45.1338L38.6312 51.1206C38.7816 51.1756 38.9378 51.2026 39.0937 51.2026H39.0938V20.2711H22.2188V45.1338Z" fill="#FF9D21"/>
<path d="M0 29.1735L39.0938 43.4338V40.3143L0 26.0541V29.1735Z" fill="#F5F0EB"/>
<path d="M22.2188 37.2782L39.0938 43.4338V40.3143L22.2188 34.1589V37.2782Z" fill="#EBE1DC"/>
<path d="M39.8077 5.25487C39.451 5.03472 39.02 4.99043 38.6292 5.1336C36.7285 5.83039 29.3852 8.50709 21.6109 11.3411C12.763 14.5663 3.61388 17.9014 0.94172 18.8809C0.377064 19.0879 -0.000748885 19.6464 1.1146e-06 20.273C0.000751115 20.8996 0.379876 21.4571 0.945001 21.6626L25.5 30.6195V37.9463C25.5 39.8444 26.9691 41.3831 28.7812 41.3831C30.5934 41.3831 32.0625 39.8444 32.0625 37.9463V33.0133L38.6292 35.4087C39.0198 35.552 39.451 35.5076 39.8077 35.2874C40.1422 35.0809 48 30.1176 48 20.2711C48 19.8644 47.9069 10.2539 39.8077 5.25487V5.25487Z" fill="#FFEF7B"/>
<path d="M39.8077 5.25487C39.451 5.03472 39.02 4.99043 38.6292 5.1336C36.7781 5.81213 29.7649 8.36873 22.2188 11.1195V29.4226L25.5 30.6195V37.9463C25.5 39.8444 26.9691 41.3831 28.7812 41.3831C30.5934 41.3831 32.0625 39.8444 32.0625 37.9463V33.0133L38.6292 35.4087C39.0198 35.552 39.451 35.5076 39.8077 35.2874C40.1422 35.0809 48 30.1176 48 20.2711C48 19.8644 47.9069 10.2539 39.8077 5.25487Z" fill="#FFDE46"/>
<path d="M38.625 15.3614C39.4017 15.3614 40.0312 14.7019 40.0312 13.8885C40.0312 13.075 39.4017 12.4155 38.625 12.4155C37.8483 12.4155 37.2188 13.075 37.2188 13.8885C37.2188 14.7019 37.8483 15.3614 38.625 15.3614Z" fill="#FF9D21"/>
<path d="M40.5 22.235C41.2767 22.235 41.9062 21.5756 41.9062 20.7621C41.9062 19.9486 41.2767 19.2892 40.5 19.2892C39.7233 19.2892 39.0938 19.9486 39.0938 20.7621C39.0938 21.5756 39.7233 22.235 40.5 22.235Z" fill="#FF9D21"/>
<path d="M35.8125 28.1267C36.5892 28.1267 37.2188 27.4673 37.2188 26.6538C37.2188 25.8403 36.5892 25.1809 35.8125 25.1809C35.0358 25.1809 34.4062 25.8403 34.4062 26.6538C34.4062 27.4673 35.0358 28.1267 35.8125 28.1267Z" fill="#FF9D21"/>
<path d="M33 21.2531C33.7767 21.2531 34.4062 20.5936 34.4062 19.7801C34.4062 18.9667 33.7767 18.3072 33 18.3072C32.2233 18.3072 31.5938 18.9667 31.5938 19.7801C31.5938 20.5936 32.2233 21.2531 33 21.2531Z" fill="#FF9D21"/>
<path d="M22.2188 9.76455C21.4422 9.76455 20.8125 9.10507 20.8125 8.29162C20.8125 6.43044 19.8252 4.75709 18.2358 3.9246L17.8399 3.71731C17.1452 3.35359 16.8637 2.46876 17.211 1.74123C17.5585 1.0137 18.4034 0.718823 19.0977 1.08254L19.4936 1.28983C22.042 2.62449 23.625 5.30738 23.625 8.29162C23.625 9.10507 22.9954 9.76455 22.2188 9.76455V9.76455Z" fill="#BEDA4B"/>
<path d="M22.2188 9.76448C22.9954 9.76448 23.625 9.105 23.625 8.29155C23.625 6.60466 23.1188 5.01429 22.2188 3.70898V9.76448Z" fill="#14CD6E"/>
<path d="M22.2188 19.5838C18.8587 19.5838 16.125 16.7205 16.125 13.2011C16.125 9.68169 18.8587 6.81842 22.2188 6.81842C25.5788 6.81842 28.3125 9.68169 28.3125 13.2011C28.3125 16.7205 25.5788 19.5838 22.2188 19.5838Z" fill="#FF4169"/>
<path d="M28.3125 13.2011C28.3125 9.68169 25.5788 6.81842 22.2188 6.81842V19.5838C25.5788 19.5838 28.3125 16.7205 28.3125 13.2011Z" fill="#CF3160"/>
</g>
<defs>
<clipPath id="clip0">
<rect width="48" height="50.2759" fill="white" transform="translate(0 0.926727)"/>
</clipPath>
</defs>
</svg>
