<svg width="48" height="52" viewBox="0 0 48 52" fill="none" xmlns="http://www.w3.org/2000/svg">
<path d="M32.25 9.61529C32.25 9.61529 32.25 4.90193 29.25 3.33081C26.25 4.90193 26.25 9.61529 26.25 9.61529V16.6853H32.25V9.61529Z" fill="#35A872"/>
<path d="M31.5 19.8276C31.5 19.8276 32.3864 11.972 41.25 11.972C41.25 11.972 36.8182 15.8998 36.8182 19.8276H31.5Z" fill="#248256"/>
<path d="M27 19.8276C27 19.8276 26.1136 11.972 17.25 11.972C17.25 11.972 21.6818 15.8998 21.6818 19.8276H27Z" fill="#248256"/>
<path d="M28.5 15.8998C28.5 15.8998 29.3864 8.04416 38.25 8.04416C38.25 8.04416 33.8182 11.972 33.8182 15.8998H28.5Z" fill="#319C6A"/>
<path d="M30 15.8998C30 15.8998 29.1136 8.04416 20.25 8.04416C20.25 8.04416 24.6818 11.972 24.6818 15.8998H30Z" fill="#2E9163"/>
<path d="M41.25 27.6832C41.25 20.7415 35.8774 15.1142 29.25 15.1142C22.6226 15.1142 17.25 20.7415 17.25 27.6832V32.3965C17.25 39.3382 22.6226 44.9655 29.25 44.9655C35.8774 44.9655 41.25 39.3382 41.25 32.3965V27.6832Z" fill="#F7B030"/>
<path d="M37.7615 32.2198L33.5184 36.5295L29.2612 32.2011L33.5044 27.8864L37.7615 32.2198Z" fill="#E09F2C"/>
<path d="M29.2613 32.2011L25.0051 36.5296L20.761 32.2188L25.0172 27.8845L29.2613 32.2011Z" fill="#E09F2C"/>
<path d="M29.0502 15.1161L25.0059 19.2335L22.8562 17.0457C24.712 15.8178 26.8554 15.1501 29.0502 15.1161V15.1161Z" fill="#E09F2C"/>
<path d="M29.2594 23.5639L25.0172 27.8845L20.76 23.556L25.0059 19.2335L29.2594 23.5639Z" fill="#E09F2C"/>
<path d="M37.7633 23.556L33.5043 27.8864L29.2593 23.5639L33.5146 19.2315L37.7633 23.556Z" fill="#E09F2C"/>
<path d="M35.6541 17.0526L33.5147 19.2315L29.4731 15.1161C31.6641 15.1548 33.8027 15.8248 35.6541 17.0526V17.0526Z" fill="#E09F2C"/>
<path d="M20.76 23.556L17.2622 27.1176C17.343 25.1599 17.8623 23.2497 18.7781 21.541L20.76 23.556Z" fill="#E09F2C"/>
<path d="M41.2369 27.0921L37.7634 23.556L39.7294 21.5568C40.6366 23.2537 41.1529 25.1492 41.2369 27.0921V27.0921Z" fill="#E09F2C"/>
<path d="M41.2499 28.6769V32.3965C41.2507 33.4145 41.1332 34.4288 40.9002 35.417L37.7615 32.2198L41.2499 28.6769Z" fill="#E09F2C"/>
<path d="M20.7609 32.2188L17.6034 35.4347C17.3681 34.4408 17.2495 33.4205 17.25 32.3965V28.6533L20.7609 32.2188Z" fill="#E09F2C"/>
<path d="M25.0051 36.5296L20.5529 41.0574C19.1215 39.4822 18.1052 37.5448 17.6035 35.4347L20.761 32.2188L25.0051 36.5296Z" fill="#F7B030"/>
<path d="M37.9583 41.0446C36.838 42.2822 35.4889 43.268 33.9932 43.942C32.4975 44.6161 30.8864 44.9643 29.2582 44.9655C27.6299 44.9667 26.0184 44.6209 24.5218 43.949C23.0252 43.2771 21.6748 42.2933 20.5527 41.0574L25.0049 36.5296L29.2612 40.8531L33.5183 36.5296L37.9583 41.0446Z" fill="#E09F2C"/>
<path d="M32.7422 44.3881C32.7307 44.4016 32.7212 44.4168 32.7141 44.4333C30.4528 45.1436 28.0422 45.1429 25.7812 44.4313V44.3881L29.2612 40.8531L32.7422 44.3881Z" fill="#F7B030"/>
<path d="M45.75 33.1821C45.75 40.7745 38.0269 48.8933 28.5 48.8933C18.9731 48.8933 11.25 40.7745 11.25 33.1821H45.75Z" fill="#35A872"/>
<path d="M42.7189 33.1821C42.2304 39.3978 36.0514 45.7511 28.4998 45.7511C20.9483 45.7511 14.7692 39.3978 14.2808 33.1821H42.7189Z" fill="#D13330"/>
<path d="M39 36.3243C39 36.5327 38.921 36.7325 38.7803 36.8798C38.6397 37.0271 38.4489 37.1099 38.25 37.1099C38.0511 37.1099 37.8603 37.0271 37.7197 36.8798C37.579 36.7325 37.5 36.5327 37.5 36.3243C37.5 35.8905 37.8358 34.7532 38.25 34.7532C38.6642 34.7532 39 35.8905 39 36.3243Z" fill="#5E3725"/>
<path d="M35.25 40.2522C35.25 40.4605 35.171 40.6603 35.0303 40.8076C34.8897 40.9549 34.6989 41.0377 34.5 41.0377C34.3011 41.0377 34.1103 40.9549 33.9697 40.8076C33.829 40.6603 33.75 40.4605 33.75 40.2522C33.75 39.8183 34.0858 38.681 34.5 38.681C34.9142 38.681 35.25 39.8183 35.25 40.2522Z" fill="#5E3725"/>
<path d="M31.5 37.8955C31.5 38.1038 31.421 38.3036 31.2803 38.4509C31.1397 38.5983 30.9489 38.681 30.75 38.681C30.5511 38.681 30.3603 38.5983 30.2197 38.4509C30.079 38.3036 30 38.1038 30 37.8955C30 37.4616 30.3358 36.3243 30.75 36.3243C31.1642 36.3243 31.5 37.4616 31.5 37.8955Z" fill="#5E3725"/>
<path d="M27 37.8955C27 38.1038 26.921 38.3036 26.7803 38.4509C26.6397 38.5983 26.4489 38.681 26.25 38.681C26.0511 38.681 25.8603 38.5983 25.7197 38.4509C25.579 38.3036 25.5 38.1038 25.5 37.8955C25.5 37.4616 25.8358 36.3243 26.25 36.3243C26.6642 36.3243 27 37.4616 27 37.8955Z" fill="#5E3725"/>
<path d="M29.25 42.6088C29.25 42.8172 29.171 43.017 29.0303 43.1643C28.8897 43.3116 28.6989 43.3944 28.5 43.3944C28.3011 43.3944 28.1103 43.3116 27.9697 43.1643C27.829 43.017 27.75 42.8172 27.75 42.6088C27.75 42.175 28.0858 41.0377 28.5 41.0377C28.9142 41.0377 29.25 42.175 29.25 42.6088Z" fill="#5E3725"/>
<path d="M21.75 40.2522C21.75 40.4605 21.829 40.6603 21.9697 40.8076C22.1103 40.9549 22.3011 41.0377 22.5 41.0377C22.6989 41.0377 22.8897 40.9549 23.0303 40.8076C23.171 40.6603 23.25 40.4605 23.25 40.2522C23.25 39.8183 22.9142 38.681 22.5 38.681C22.0858 38.681 21.75 39.8183 21.75 40.2522Z" fill="#5E3725"/>
<path d="M17.2417 28.4687C16.6436 28.4687 15.0855 28.8963 14.4428 29.4016C13.9567 29.7906 13.3618 30.0014 12.75 30.0014C12.1382 30.0014 11.5433 29.7906 11.0571 29.4016C10.4146 28.8964 8.85637 28.4687 8.25824 28.4687C4.34671 28.4687 1.70324 32.1585 2.34637 36.6838L2.81512 39.9808C3.09472 41.9776 3.71679 43.905 4.6513 45.6699C5.99409 48.1902 8.56874 49.4089 11.0268 48.6881L12.2812 48.2179C12.5842 48.1038 12.9157 48.1038 13.2187 48.2179L14.4732 48.6881C16.9315 49.4089 19.5059 48.1902 20.849 45.6699C21.7835 43.905 22.4055 41.9776 22.6851 39.9808L23.1539 36.6838C23.7967 32.1585 21.1533 28.4687 17.2417 28.4687V28.4687Z" fill="#EB423F"/>
<path d="M12.75 33.9676C12.5511 33.9676 12.3603 33.8849 12.2197 33.7375C12.079 33.5902 12 33.3904 12 33.1821C12 33.1084 12.0022 31.3534 12.1909 29.278C12.4516 26.4107 12.9344 24.4061 13.626 23.3196C13.7372 23.1485 13.9085 23.0303 14.1025 22.9907C14.2964 22.9511 14.4975 22.9933 14.6619 23.1081C14.8264 23.223 14.9409 23.4011 14.9806 23.6039C15.0203 23.8067 14.982 24.0177 14.874 24.191C13.7481 25.9601 13.5 31.2812 13.5 33.1821C13.5 33.3904 13.421 33.5902 13.2803 33.7375C13.1397 33.8849 12.9489 33.9676 12.75 33.9676Z" fill="#5E3725"/>
<path d="M15.5304 31.841C15.4607 31.7681 15.378 31.7102 15.287 31.6707C15.196 31.6313 15.0985 31.6109 15 31.6109C14.9015 31.6109 14.804 31.6313 14.713 31.6707C14.622 31.7102 14.5393 31.7681 14.4697 31.841C14.4644 31.8466 13.8884 32.3965 12.75 32.3965C11.6116 32.3965 11.0453 31.8553 11.0217 31.8322L11.03 31.8407C10.9605 31.7671 10.8777 31.7086 10.7865 31.6686C10.6953 31.6286 10.5975 31.6079 10.4986 31.6077C10.3997 31.6074 10.3018 31.6277 10.2104 31.6672C10.119 31.7068 10.036 31.7648 9.96614 31.8381C9.89628 31.9114 9.84093 31.9984 9.80329 32.0942C9.76566 32.1899 9.74647 32.2926 9.74683 32.3961C9.7472 32.4997 9.7671 32.6021 9.80541 32.6976C9.84373 32.7931 9.89968 32.8797 9.97006 32.9524C10.0707 33.0577 10.9917 33.9676 12.75 33.9676C14.5099 33.9676 15.4313 33.0559 15.5304 32.952C15.6 32.8791 15.6553 32.7925 15.693 32.6972C15.7306 32.6018 15.75 32.4997 15.75 32.3965C15.75 32.2934 15.7306 32.1912 15.693 32.0959C15.6553 32.0006 15.6 31.914 15.5304 31.841V31.841Z" fill="#C7312E"/>
</svg>
