<svg width="50" height="50" viewBox="0 0 50 50" fill="none" xmlns="http://www.w3.org/2000/svg">
<g clip-path="url(#clip0)">
<path d="M42.6502 32.3493C38.6141 32.3493 35.3008 29.0361 35.3008 24.9999C35.3008 20.9638 38.6141 17.6505 42.6502 17.6505C46.6863 17.6505 49.9996 20.9638 49.9996 24.9999C49.9996 29.0361 46.6863 32.3493 42.6502 32.3493ZM42.6502 21.265C40.602 21.265 38.9152 22.9518 38.9152 24.9999C38.9152 27.0481 40.602 28.7349 42.6502 28.7349C44.6984 28.7349 46.3852 27.0481 46.3852 24.9999C46.3852 22.9518 44.6984 21.265 42.6502 21.265Z" fill="#00F69E"/>
<path d="M24.9998 32.3493C20.9637 32.3493 17.6504 29.0361 17.6504 24.9999C17.6504 20.9638 20.9637 17.6505 24.9998 17.6505C29.0359 17.6505 32.3492 20.9638 32.3492 24.9999C32.3492 29.0361 29.0359 32.3493 24.9998 32.3493ZM24.9998 21.265C22.9516 21.265 21.2649 22.9518 21.2649 24.9999C21.2649 27.0481 22.9516 28.7349 24.9998 28.7349C27.048 28.7349 28.7348 27.0481 28.7348 24.9999C28.7348 22.9518 27.0481 21.265 24.9998 21.265Z" fill="#4DCFE0"/>
<path d="M7.34942 32.3493C3.31329 32.3493 0 29.0361 0 24.9999C0 20.9638 3.31329 17.6505 7.34942 17.6505C11.3855 17.6505 14.6988 20.9638 14.6988 24.9999C14.6988 29.0361 11.3855 32.3493 7.34942 32.3493ZM7.34942 21.265C5.30126 21.265 3.61446 22.9518 3.61446 24.9999C3.61446 27.0481 5.30126 28.7349 7.34942 28.7349C9.39758 28.7349 11.0844 27.0481 11.0844 24.9999C11.0844 22.9518 9.39758 21.265 7.34942 21.265Z" fill="#00F69E"/>
</g>
<defs>
<clipPath id="clip0">
<rect width="50" height="50" fill="white"/>
</clipPath>
</defs>
</svg>
