<svg width="50" height="50" viewBox="0 0 50 50" fill="none" xmlns="http://www.w3.org/2000/svg">
<path d="M9 47C11.7614 47 14 44.7614 14 42C14 39.2386 11.7614 37 9 37C6.23858 37 4 39.2386 4 42C4 44.7614 6.23858 47 9 47Z" fill="#00F69E"/>
<path d="M25 47C27.7614 47 30 44.7614 30 42C30 39.2386 27.7614 37 25 37C22.2386 37 20 39.2386 20 42C20 44.7614 22.2386 47 25 47Z" fill="#00F69E"/>
<path d="M40.5 47C43.2614 47 45.5 44.7614 45.5 42C45.5 39.2386 43.2614 37 40.5 37C37.7386 37 35.5 39.2386 35.5 42C35.5 44.7614 37.7386 47 40.5 47Z" fill="#00F69E"/>
</svg>
