<svg width="48" height="52" viewBox="0 0 48 52" fill="none" xmlns="http://www.w3.org/2000/svg">
<path d="M44.25 37.8955L43.5 37.1099H20.25V42.6088L21.75 41.8233L23.25 42.6088L24.75 41.8233L26.25 42.6088L27.75 41.8233L29.25 42.6088L30.75 41.8233L32.25 42.6088L33.75 41.8233L35.25 42.6088L36.75 41.8233L38.25 42.6088L39.75 41.8233L41.25 42.6088L42.75 41.8233L44.25 42.6088V37.8955Z" fill="#6CBAE5"/>
<path d="M31.5 5.68753H33V8.82977H31.5V5.68753Z" fill="#428DC5"/>
<path d="M28.5 5.68753H30V8.82977H28.5V5.68753Z" fill="#428DC5"/>
<path d="M25.5 5.68753H27V8.82977H25.5V5.68753Z" fill="#428DC5"/>
<path d="M22.5 5.68753H24V8.82977H22.5V5.68753Z" fill="#428DC5"/>
<path d="M40.5 5.68753H42V8.82977H40.5V5.68753Z" fill="#428DC5"/>
<path d="M37.5 5.68753H39V8.82977H37.5V5.68753Z" fill="#428DC5"/>
<path d="M34.5 5.68753H36V8.82977H34.5V5.68753Z" fill="#428DC5"/>
<path d="M40.5 37.11H42V40.2522H40.5V37.11Z" fill="#428DC5"/>
<path d="M37.5 37.11H39V40.2522H37.5V37.11Z" fill="#428DC5"/>
<path d="M34.5 37.11H36V40.2522H34.5V37.11Z" fill="#428DC5"/>
<path d="M44.25 8.0442L42.75 8.82976H20.25V3.33084L21.75 4.1164L23.25 3.33084L24.75 4.1164L26.25 3.33084L27.75 4.1164L29.25 3.33084L30.75 4.1164L32.25 3.33084L33.75 4.1164L35.25 3.33084L36.75 4.1164L38.25 3.33084L39.75 4.1164L41.25 3.33084L42.75 4.1164L44.25 3.33084V8.0442Z" fill="#6CBAE5"/>
<path d="M44.25 37.8955H20.25L21 32.3966L20.6243 27.6744C20.3752 24.543 20.3656 21.3958 20.5957 18.2629L21 12.7576L20.25 8.04419H44.25L43.5 12.7576L43.9043 18.2629C44.1344 21.3958 44.1248 24.543 43.8757 27.6744L43.5 32.3966L44.25 37.8955Z" fill="#4799CF"/>
<path d="M32.25 31.611C36.8063 31.611 40.5 27.7422 40.5 22.9698C40.5 18.1975 36.8063 14.3287 32.25 14.3287C27.6937 14.3287 24 18.1975 24 22.9698C24 27.7422 27.6937 31.611 32.25 31.611Z" fill="#428DC5"/>
<path d="M30.375 26.8977C32.239 26.8977 33.75 25.1391 33.75 22.9699C33.75 20.8006 32.239 19.0421 30.375 19.0421C28.511 19.0421 27 20.8006 27 22.9699C27 25.1391 28.511 26.8977 30.375 26.8977Z" fill="#A45E14"/>
<path d="M26.25 40.2522H2.25L3 37.1099V15.1143L2.25 11.972H26.25L25.5 15.1143V37.1099L26.25 40.2522Z" fill="#FBB540"/>
<path d="M26.25 11.972H2.25V8.04419L3.75 8.82975L5.25 8.04419L6.75 8.82975L8.25 8.04419L9.75 8.82975L11.25 8.04419L12.75 8.82975L14.25 8.04419L15.75 8.82975L17.25 8.04419L18.75 8.82975L20.25 8.04419L21.75 8.82975L23.25 8.04419L24.75 8.82975L26.25 8.04419V11.972Z" fill="#EA9D2D"/>
<path d="M26.25 40.2522H2.25V44.18L3.75 43.3944L5.25 44.18L6.75 43.3944L8.25 44.18L9.75 43.3944L11.25 44.18L12.75 43.3944L14.25 44.18L15.75 43.3944L17.25 44.18L18.75 43.3944L20.25 44.18L21.75 43.3944L23.25 44.18L24.75 43.3944L26.25 44.18V40.2522Z" fill="#EA9D2D"/>
<path d="M14.25 31.611C17.5637 31.611 20.25 28.7974 20.25 25.3265C20.25 21.8557 17.5637 19.0421 14.25 19.0421C10.9363 19.0421 8.25 21.8557 8.25 25.3265C8.25 28.7974 10.9363 31.611 14.25 31.611Z" fill="#6B9777"/>
<path d="M20.0625 28.4688H11.5734C9.49437 28.4688 7.49638 29.3136 6 30.8254V23.9518C6 23.2747 6.25681 22.6253 6.71393 22.1465C7.17105 21.6677 7.79103 21.3987 8.4375 21.3987H17.8193C19.4043 21.3987 20.9537 20.9073 22.2725 19.9865L22.5 19.8276V25.9157C22.5 26.5928 22.2432 27.2422 21.7861 27.721C21.329 28.1998 20.709 28.4688 20.0625 28.4688V28.4688Z" fill="#EA9D2D"/>
<path d="M37.5 22.9698C37.5 24.0116 37.1049 25.0106 36.4017 25.7472C35.6984 26.4838 34.7446 26.8976 33.75 26.8976C32.7554 26.8976 31.8016 26.4838 31.0983 25.7472C30.3951 25.0106 30 24.0116 30 22.9698H37.5Z" fill="#EA9D2D"/>
<path d="M33 48.8933L30 47.3222H15.75L12 48.8933V34.7533L15.75 36.3244H30L33 34.7533V48.8933Z" fill="#DC4D41"/>
<path d="M12 41.0377H14.25V42.6088H12V41.0377Z" fill="#B94137"/>
<path d="M12 44.18H14.25V45.7511H12V44.18Z" fill="#B94137"/>
<path d="M12 37.8955H14.25V39.4666H12V37.8955Z" fill="#B94137"/>
<path d="M30.75 41.0377H33V42.6088H30.75V41.0377Z" fill="#B94137"/>
<path d="M30.75 44.18H33V45.7511H30.75V44.18Z" fill="#B94137"/>
<path d="M30.75 37.8955H33V39.4666H30.75V37.8955Z" fill="#B94137"/>
<path d="M22.5 44.9655C24.1569 44.9655 25.5 43.5587 25.5 41.8233C25.5 40.0879 24.1569 38.6811 22.5 38.6811C20.8431 38.6811 19.5 40.0879 19.5 41.8233C19.5 43.5587 20.8431 44.9655 22.5 44.9655Z" fill="#FD9226"/>
</svg>
