<svg width="48" height="52" viewBox="0 0 48 52" fill="none" xmlns="http://www.w3.org/2000/svg">
<g clip-path="url(#clip0)">
<path d="M30.2652 51.25H17.734C17.2878 51.25 16.9101 50.905 16.8493 50.4421L16.6001 48.5444L22.6115 45.6739L31.3992 48.5444L31.15 50.4421C31.0891 50.905 30.7113 51.25 30.2652 51.25Z" fill="#DAE7EF"/>
<path d="M25.9652 6.38907H22.0341C17.3006 6.38907 13.4634 10.4083 13.4634 15.3662V16.8712H34.536V15.3662C34.536 10.4083 30.6987 6.38907 25.9652 6.38907V6.38907Z" fill="#DAE7EF"/>
<path d="M27.7405 6.58194C29.5377 8.22749 30.6729 10.6464 30.6729 13.3431C30.6729 14.1743 30.0296 14.848 29.2361 14.848H13.4774C13.4682 15.0195 13.4634 15.1923 13.4634 15.3662V18.2217L34.5359 16.8712V15.3662C34.536 11.0458 31.6221 7.4382 27.7405 6.58194V6.58194Z" fill="#C1D5E4"/>
<path d="M26.451 31.8781C28.9031 31.8781 33.323 29.9474 34.0126 30.1235L34.3331 20.8337L22.7445 19.1321L13.6663 20.8337L13.9829 30.0157C14.6742 30.1921 15.2792 31.8781 16.6441 31.8781H26.451Z" fill="#DAE7EF"/>
<path d="M30.4001 20.8337L30.0901 29.8222C30.4341 29.7776 30.0529 30.9677 30.5674 30.9677C31.9297 30.9677 33.323 29.9474 34.0126 30.1234L34.3329 20.8337L32.3057 20.0425L30.4001 20.8337Z" fill="#C1D5E4"/>
<path d="M22.4751 20.8337V31.3097C23.7836 31.4227 24.2153 31.7651 25.524 31.8782V20.0425L22.4751 20.8337Z" fill="#DD636E"/>
<path d="M25.1331 0.974121H22.8664C22.6504 0.974121 22.4753 1.15755 22.4753 1.38369V6.38909L25.5242 7.29651V1.38369C25.5241 1.15755 25.3491 0.974121 25.1331 0.974121V0.974121Z" fill="#E28086"/>
<path d="M22.4751 6.38907H25.524V16.8712H22.4751V6.38907Z" fill="#DD636E"/>
<path d="M25.524 14.848H22.4751V16.8712L25.524 17.3112V14.848Z" fill="#DA4A54"/>
<path d="M35.7073 20.8337H12.2927C11.9878 20.8337 11.7407 20.5748 11.7407 20.2555V17.4493C11.7407 17.13 11.9878 16.8711 12.2927 16.8711H35.7073C36.0122 16.8711 36.2593 17.13 36.2593 17.4493V20.2555C36.2593 20.5748 36.0122 20.8337 35.7073 20.8337Z" fill="#BCD0DF"/>
<path d="M15.7386 18.919C16.1386 18.919 16.4629 18.5793 16.4629 18.1603V16.8712H15.0142V18.1603C15.0142 18.5794 15.3385 18.919 15.7386 18.919Z" fill="#98B9D3"/>
<path d="M28.1302 18.919C28.5302 18.919 28.8545 18.5793 28.8545 18.1603V16.8712H27.4058V18.1603C27.4059 18.5794 27.7301 18.919 28.1302 18.919Z" fill="#98B9D3"/>
<path d="M23.9997 18.919C24.3997 18.919 24.724 18.5793 24.724 18.1603V16.8712H23.2754V18.1603C23.2754 18.5794 23.5997 18.919 23.9997 18.919V18.919Z" fill="#98B9D3"/>
<path d="M19.8691 18.919C20.2691 18.919 20.5934 18.5793 20.5934 18.1603V16.8712H19.1448V18.1603C19.1448 18.5794 19.4691 18.919 19.8691 18.919Z" fill="#98B9D3"/>
<path d="M31.5364 16.8712V18.1603C31.5364 18.5794 31.8607 18.919 32.2607 18.919C32.6607 18.919 32.985 18.5793 32.985 18.1603V16.8712H31.5364Z" fill="#98B9D3"/>
<path d="M31.3552 29.7493C28.9031 29.7493 28.9031 30.3909 26.4511 30.3909C23.9993 30.3909 23.9993 29.7493 21.5477 29.7493C19.0958 29.7493 19.0958 30.3909 16.6441 30.3909C15.2792 30.3909 14.6741 30.1921 13.9829 30.0157L14.5497 46.4514C14.59 47.6193 15.5056 48.5443 16.6214 48.5443H31.3779C32.4937 48.5443 33.4093 47.6193 33.4496 46.4514L34.0128 30.1233C33.3231 29.9474 32.7176 29.7493 31.3552 29.7493V29.7493Z" fill="#EAB14D"/>
<path d="M31.3552 29.7493C30.8406 29.7493 30.434 29.7776 30.09 29.8222L29.8571 36.578C29.6657 42.1266 25.3158 46.5211 20.0149 46.5211H14.5532C14.6267 47.6559 15.5279 48.5443 16.6214 48.5443H31.3779C32.4936 48.5443 33.4093 47.6193 33.4496 46.4514L34.0127 30.1233C33.3231 29.9474 32.7177 29.7493 31.3552 29.7493Z" fill="#E7A52E"/>
<path d="M18.4506 45.1979C19.4722 45.1979 20.3004 44.3305 20.3004 43.2604C20.3004 42.1904 19.4722 41.3229 18.4506 41.3229C17.429 41.3229 16.6008 42.1904 16.6008 43.2604C16.6008 44.3305 17.429 45.1979 18.4506 45.1979Z" fill="#AA8080"/>
<path d="M22.1503 45.1979C23.1719 45.1979 24.0001 44.3305 24.0001 43.2604C24.0001 42.1904 23.1719 41.3229 22.1503 41.3229C21.1287 41.3229 20.3005 42.1904 20.3005 43.2604C20.3005 44.3305 21.1287 45.1979 22.1503 45.1979Z" fill="#AA8080"/>
<path d="M25.8498 45.1979C26.8714 45.1979 27.6996 44.3305 27.6996 43.2604C27.6996 42.1904 26.8714 41.3229 25.8498 41.3229C24.8282 41.3229 24 42.1904 24 43.2604C24 44.3305 24.8282 45.1979 25.8498 45.1979Z" fill="#AA8080"/>
<path d="M25.1084 45.036C25.3354 45.1402 25.5862 45.1979 25.8499 45.1979C26.8715 45.1979 27.6996 44.3305 27.6996 43.2604C27.6996 43.0815 27.6765 42.9083 27.6332 42.7438C26.9233 43.6502 26.0692 44.4268 25.1084 45.036Z" fill="#9D6B6B"/>
<path d="M20.3005 48.5444C21.3221 48.5444 22.1502 47.677 22.1502 46.6069C22.1502 45.5369 21.3221 44.6694 20.3005 44.6694C19.2789 44.6694 18.4507 45.5369 18.4507 46.6069C18.4507 47.677 19.2789 48.5444 20.3005 48.5444Z" fill="#AA8080"/>
<path d="M22.1502 46.6069C22.1502 46.4968 22.1413 46.3888 22.1246 46.2838C21.4445 46.4393 20.7386 46.5212 20.0149 46.5212H18.4525C18.4512 46.5496 18.4507 46.5781 18.4507 46.6069C18.4507 47.6769 19.2789 48.5444 20.3005 48.5444C21.322 48.5444 22.1502 47.6769 22.1502 46.6069V46.6069Z" fill="#9D6B6B"/>
<path d="M16.6008 48.5444C17.6224 48.5444 18.4505 47.677 18.4505 46.6069C18.4505 45.5369 17.6224 44.6694 16.6008 44.6694C15.5792 44.6694 14.751 45.5369 14.751 46.6069C14.751 47.677 15.5792 48.5444 16.6008 48.5444Z" fill="#AA8080"/>
<path d="M18.4507 46.6069C18.4507 46.5782 18.45 46.5497 18.4489 46.5212H14.753C14.7518 46.5496 14.7512 46.5781 14.7512 46.6069C14.7512 47.5515 15.3966 48.3382 16.2507 48.5097C16.3677 48.5319 16.488 48.5437 16.6108 48.5444C17.6278 48.5387 18.4507 47.6735 18.4507 46.6069Z" fill="#9D6B6B"/>
<path d="M27.6994 48.5444C28.721 48.5444 29.5492 47.677 29.5492 46.6069C29.5492 45.5369 28.721 44.6694 27.6994 44.6694C26.6778 44.6694 25.8496 45.5369 25.8496 46.6069C25.8496 47.677 26.6778 48.5444 27.6994 48.5444Z" fill="#9D6B6B"/>
<path d="M24.0002 48.5444C25.0218 48.5444 25.85 47.677 25.85 46.6069C25.85 45.5369 25.0218 44.6694 24.0002 44.6694C22.9786 44.6694 22.1504 45.5369 22.1504 46.6069C22.1504 47.677 22.9786 48.5444 24.0002 48.5444Z" fill="#AA8080"/>
<path d="M25.85 46.6069C25.85 45.9658 25.5527 45.3975 25.0945 45.0447C24.2039 45.6073 23.2219 46.0262 22.178 46.2714C22.1599 46.3804 22.1504 46.4924 22.1504 46.6069C22.1504 47.677 22.9786 48.5444 24.0002 48.5444C25.0218 48.5444 25.85 47.677 25.85 46.6069Z" fill="#9D6B6B"/>
<path d="M20.3005 41.8514C21.3221 41.8514 22.1502 40.984 22.1502 39.914C22.1502 38.8439 21.3221 37.9765 20.3005 37.9765C19.2789 37.9765 18.4507 38.8439 18.4507 39.914C18.4507 40.984 19.2789 41.8514 20.3005 41.8514Z" fill="#AA8080"/>
<path d="M16.6008 41.8514C17.6224 41.8514 18.4505 40.984 18.4505 39.914C18.4505 38.8439 17.6224 37.9765 16.6008 37.9765C15.5792 37.9765 14.751 38.8439 14.751 39.914C14.751 40.984 15.5792 41.8514 16.6008 41.8514Z" fill="#AA8080"/>
<path d="M27.6994 41.8514C28.721 41.8514 29.5492 40.984 29.5492 39.914C29.5492 38.8439 28.721 37.9765 27.6994 37.9765C26.6778 37.9765 25.8496 38.8439 25.8496 39.914C25.8496 40.984 26.6778 41.8514 27.6994 41.8514Z" fill="#AA8080"/>
<path d="M29.5494 39.914C29.5494 39.6745 29.5079 39.4451 29.432 39.2334C29.1709 40.1258 28.7978 40.9658 28.3301 41.7361C29.0413 41.466 29.5494 40.7521 29.5494 39.914V39.914Z" fill="#9D6B6B"/>
<path d="M29.5492 45.1979C30.5708 45.1979 31.399 44.3305 31.399 43.2604C31.399 42.1904 30.5708 41.3229 29.5492 41.3229C28.5276 41.3229 27.6995 42.1904 27.6995 43.2604C27.6995 44.3305 28.5276 45.1979 29.5492 45.1979Z" fill="#9D6B6B"/>
<path d="M31.3991 48.5444C32.4207 48.5444 33.2489 47.677 33.2489 46.6069C33.2489 45.5369 32.4207 44.6694 31.3991 44.6694C30.3775 44.6694 29.5493 45.5369 29.5493 46.6069C29.5493 47.677 30.3775 48.5444 31.3991 48.5444Z" fill="#9D6B6B"/>
<path d="M31.3991 41.8514C32.4207 41.8514 33.2489 40.984 33.2489 39.914C33.2489 38.8439 32.4207 37.9765 31.3991 37.9765C30.3775 37.9765 29.5493 38.8439 29.5493 39.914C29.5493 40.984 30.3775 41.8514 31.3991 41.8514Z" fill="#9D6B6B"/>
<path d="M24.0002 41.8514C25.0218 41.8514 25.85 40.984 25.85 39.914C25.85 38.8439 25.0218 37.9765 24.0002 37.9765C22.9786 37.9765 22.1504 38.8439 22.1504 39.914C22.1504 40.984 22.9786 41.8514 24.0002 41.8514Z" fill="#AA8080"/>
</g>
<defs>
<clipPath id="clip0">
<rect width="48" height="50.2759" fill="white" transform="translate(0 0.974121)"/>
</clipPath>
</defs>
</svg>
