<svg width="48" height="52" viewBox="0 0 48 52" fill="none" xmlns="http://www.w3.org/2000/svg">
<path d="M10.1835 15.6376C9.669 15.0862 9.01101 14.7055 8.29146 14.543C7.57192 14.3805 6.82262 14.4433 6.1369 14.7236C5.45118 15.0038 4.85934 15.4892 4.43509 16.1193C4.01085 16.7493 3.77295 17.4962 3.75102 18.2669C3.34133 18.5144 2.99333 18.86 2.73543 19.2753C2.47753 19.6906 2.31704 20.1638 2.26705 20.6565C2.21706 21.1491 2.27899 21.6472 2.44779 22.11C2.61659 22.5728 2.88747 22.9872 3.23833 23.3195C3.58919 23.6517 4.01008 23.8923 4.46665 24.0217C4.92323 24.1511 5.40254 24.1656 5.86548 24.064C6.32842 23.9624 6.76186 23.7476 7.13044 23.4371C7.49901 23.1266 7.79226 22.7293 7.98627 22.2774C8.58933 22.1947 9.16416 21.9597 9.6613 21.5927C10.0962 21.7875 10.5689 21.8718 11.0409 21.8387C11.5128 21.8057 11.9706 21.6562 12.3769 21.4025C12.7832 21.1488 13.1264 20.7981 13.3786 20.379C13.6309 19.9599 13.7849 19.4842 13.8281 18.9909C13.8714 18.4975 13.8027 18.0005 13.6276 17.5402C13.4525 17.08 13.1759 16.6697 12.8206 16.3427C12.4652 16.0158 12.0411 15.7814 11.5828 15.6589C11.1245 15.5364 10.645 15.529 10.1835 15.6376V15.6376Z" fill="#02A437"/>
<path d="M8.86376 22.8274C8.71274 22.8275 8.56522 22.7797 8.44052 22.6905C8.31582 22.6013 8.21974 22.4747 8.16486 22.3273L6.80155 18.6682C6.76575 18.5721 6.74837 18.4695 6.7504 18.3664C6.75244 18.2632 6.77386 18.1615 6.81342 18.067C6.85299 17.9726 6.90993 17.8872 6.98101 17.8158C7.05208 17.7443 7.13588 17.6883 7.22764 17.6508C7.3194 17.6133 7.41731 17.5951 7.51578 17.5972C7.61425 17.5993 7.71136 17.6218 7.80156 17.6632C7.89176 17.7047 7.97328 17.7643 8.04147 17.8387C8.10966 17.9132 8.16318 18.001 8.19898 18.0971L9.56258 21.7561C9.60697 21.8752 9.62295 22.0038 9.60913 22.1308C9.59532 22.2578 9.55212 22.3794 9.4833 22.4849C9.41447 22.5905 9.3221 22.6768 9.21418 22.7365C9.10627 22.7962 8.98608 22.8274 8.86405 22.8274H8.86376Z" fill="#027E2A"/>
<path d="M10.2617 22.2561C10.2387 22.2561 10.2156 22.2549 10.1922 22.2528C10.0941 22.2433 9.99877 22.2137 9.9116 22.1657C9.82443 22.1176 9.74715 22.0521 9.68418 21.9728C9.6212 21.8934 9.57376 21.8019 9.54456 21.7033C9.51537 21.6048 9.50499 21.5012 9.51402 21.3985C9.6309 20.0944 10.1459 18.8646 10.9826 17.8912C11.0484 17.8137 11.1282 17.7506 11.2174 17.7056C11.3066 17.6606 11.4034 17.6345 11.5023 17.6288C11.6011 17.6232 11.7001 17.6381 11.7934 17.6727C11.8868 17.7073 11.9727 17.761 12.0461 17.8305C12.1195 17.9001 12.1791 17.9842 12.2214 18.0779C12.2636 18.1717 12.2877 18.2734 12.2923 18.377C12.2969 18.4806 12.2818 18.5841 12.248 18.6816C12.2142 18.779 12.1623 18.8685 12.0952 18.9449C11.4757 19.6657 11.0943 20.5765 11.0077 21.5421C10.9907 21.7371 10.9048 21.9184 10.7668 22.0505C10.6287 22.1826 10.4486 22.2559 10.2617 22.2561V22.2561Z" fill="#027E2A"/>
<path d="M7.46592 23.3988C7.28008 23.399 7.10082 23.3267 6.96314 23.1959C6.27501 22.5469 5.4055 22.1475 4.48355 22.0569C4.38547 22.0474 4.29012 22.0179 4.20295 21.9698C4.11578 21.9218 4.03849 21.8562 3.97551 21.7769C3.91252 21.6976 3.86507 21.6061 3.83586 21.5075C3.80665 21.409 3.79626 21.3054 3.80527 21.2027C3.81428 21.1 3.84252 21.0001 3.88839 20.9088C3.93425 20.8175 3.99683 20.7365 4.07256 20.6706C4.14829 20.6046 4.23568 20.5549 4.32975 20.5243C4.42382 20.4937 4.52272 20.4828 4.6208 20.4922C5.86556 20.6148 7.03953 21.154 7.9688 22.0301C8.08137 22.1365 8.16051 22.2762 8.19576 22.4306C8.23101 22.5851 8.22073 22.7472 8.16627 22.8954C8.11181 23.0436 8.01573 23.1711 7.8907 23.261C7.76567 23.3508 7.61757 23.3989 7.46592 23.3988V23.3988Z" fill="#027E2A"/>
<path d="M17.6568 36.9988L12.0674 39.2838L6.68021 27.9729C6.42536 27.4377 6.27978 26.8528 6.25277 26.2554C6.22576 25.658 6.3179 25.0612 6.52333 24.5032C6.72875 23.9452 7.04295 23.4381 7.44588 23.0143C7.84881 22.5906 8.33164 22.2594 8.86356 22.0419C9.39552 21.8245 9.96491 21.7256 10.5354 21.7514C11.1059 21.7773 11.665 21.9275 12.177 22.1923C12.689 22.4571 13.1427 22.8308 13.5092 23.2895C13.8756 23.7482 14.1468 24.2818 14.3054 24.8564L17.6568 36.9988Z" fill="#FD9226"/>
<path d="M25.5 3.14117H28.5V25.1369H25.5V3.14117Z" fill="#026A23"/>
<path d="M26.9166 19.0429C26.8453 18.5705 26.7265 18.1074 26.5622 17.6613L23.25 8.64011L21 9.42567L24.2128 18.1748C24.5681 19.1421 24.7502 20.1697 24.75 21.2061V23.9939L26.9166 19.0429Z" fill="#027226"/>
<path d="M30.2166 32.7715C30.5868 33.2886 30.7868 33.9174 30.7868 34.5636C30.7868 35.2098 30.5868 35.8386 30.2166 36.3557L30.2063 36.3704C29.9094 36.785 29.5244 37.1216 29.0818 37.3534C28.6392 37.5852 28.1511 37.7058 27.6563 37.7058H26.3438C25.849 37.7058 25.3609 37.5852 24.9183 37.3534C24.4757 37.1216 24.0907 36.785 23.7938 36.3704L23.7835 36.3557C23.4133 35.8386 23.2133 35.2098 23.2133 34.5636C23.2133 33.9174 23.4133 33.2886 23.7835 32.7715L24.7501 31.4214V23.9939L26.9166 19.0429L27.0001 18.8524L30.75 8.64011L33 9.42567L29.7872 18.1748C29.432 19.1421 29.2499 20.1697 29.25 21.2061V31.4214L30.2166 32.7715Z" fill="#027E2A"/>
<path d="M30.2166 36.3556L30.2063 36.3704C29.891 36.8112 29.4761 37.1632 28.9988 37.3945L24.5147 37.1009C24.2388 36.8992 23.9954 36.6526 23.7938 36.3704L23.7835 36.3556C23.4133 35.8386 23.2133 35.2098 23.2133 34.5636C23.2133 33.9174 23.4133 33.2885 23.7835 32.7715L23.8501 32.6782L24.7501 32.2069L29.2501 21.2061V31.4213L30.2166 32.7715C30.5868 33.2885 30.7869 33.9174 30.7869 34.5636C30.7869 35.2098 30.5868 35.8386 30.2166 36.3556V36.3556Z" fill="#027E2A"/>
<path d="M7.55151 30.1099C7.37651 30.1101 7.20693 30.0462 7.07215 29.9293C6.93737 29.8124 6.84587 29.6498 6.81349 29.4697C6.78111 29.2895 6.80989 29.1032 6.89485 28.9429C6.97981 28.7827 7.11559 28.6586 7.2787 28.5922L8.67604 28.0211C8.86135 27.9453 9.0678 27.9498 9.24997 28.0335C9.43214 28.1172 9.57511 28.2732 9.64743 28.4673C9.71975 28.6614 9.71549 28.8776 9.63559 29.0685C9.55569 29.2593 9.4067 29.409 9.22138 29.4848L7.82451 30.056C7.73751 30.0916 7.64492 30.1099 7.55151 30.1099V30.1099Z" fill="#E78244"/>
<path d="M11.7436 28.3963C11.5687 28.3965 11.3991 28.3326 11.2644 28.2157C11.1296 28.0988 11.0381 27.9362 11.0058 27.7561C10.9734 27.576 11.0021 27.3897 11.087 27.2295C11.1719 27.0692 11.3077 26.9451 11.4707 26.8787L12.8682 26.3075C13.0535 26.2318 13.2599 26.2363 13.4421 26.32C13.6242 26.4037 13.7672 26.5597 13.8395 26.7538C13.9118 26.9479 13.9075 27.1642 13.8276 27.355C13.7477 27.5458 13.5987 27.6955 13.4134 27.7712L12.0165 28.3424C11.9296 28.378 11.837 28.3963 11.7436 28.3963V28.3963Z" fill="#E78244"/>
<path d="M8.7572 32.9657C8.58219 32.966 8.41262 32.9021 8.27784 32.7852C8.14306 32.6683 8.05156 32.5057 8.01918 32.3255C7.9868 32.1454 8.01558 31.9591 8.10054 31.7988C8.18549 31.6386 8.32128 31.5145 8.48439 31.448L10.4653 30.6625C10.5571 30.625 10.655 30.6068 10.7535 30.6089C10.852 30.611 10.9491 30.6335 11.0393 30.6749C11.1295 30.7163 11.211 30.776 11.2792 30.8504C11.3474 30.9249 11.401 31.0127 11.4368 31.1088C11.4726 31.2049 11.49 31.3075 11.4879 31.4106C11.4859 31.5138 11.4645 31.6155 11.4249 31.71C11.3853 31.8044 11.3284 31.8898 11.2573 31.9613C11.1862 32.0327 11.1024 32.0888 11.0107 32.1263L9.02964 32.9118C8.94281 32.9474 8.85042 32.9657 8.7572 32.9657V32.9657Z" fill="#E78244"/>
<path d="M13.533 31.0384C13.358 31.0386 13.1885 30.9747 13.0538 30.8578C12.919 30.7408 12.8276 30.5783 12.7952 30.3982C12.7628 30.2181 12.7916 30.0318 12.8765 29.8716C12.9614 29.7114 13.0971 29.5873 13.2601 29.5208L13.9589 29.2351C14.1442 29.1594 14.3506 29.1639 14.5328 29.2476C14.715 29.3313 14.858 29.4874 14.9303 29.6815C15.0026 29.8756 14.9983 30.0918 14.9184 30.2826C14.8385 30.4735 14.6894 30.6232 14.5041 30.6989L13.8054 30.9845C13.7186 31.02 13.6262 31.0383 13.533 31.0384Z" fill="#E78244"/>
<path d="M17.7188 20.4235H19.4988C20.0908 20.4235 20.6712 20.5962 21.1748 20.9223C21.6784 21.2483 22.0853 21.7149 22.35 22.2696L22.9688 23.5657H21.1887C20.5968 23.5657 20.0165 23.3931 19.513 23.0671C19.0094 22.7411 18.6025 22.2747 18.3378 21.7202L17.7188 20.4235Z" fill="#02A437"/>
<path d="M21.3406 28.0827C21.1417 28.0827 20.9509 27.9999 20.8102 27.8526C20.6696 27.7053 20.5906 27.5055 20.5906 27.2971C20.5933 26.0087 21.0207 24.7608 21.8006 23.7644C22.5805 22.768 23.6649 22.0842 24.8706 21.8287L24.9436 21.8134C25.1386 21.7726 25.3412 21.8146 25.5067 21.9302C25.6722 22.0458 25.7871 22.2255 25.826 22.4298C25.865 22.6341 25.8249 22.8463 25.7146 23.0196C25.6042 23.193 25.4326 23.3133 25.2376 23.3541L25.1647 23.3693C24.2987 23.5528 23.5198 24.0439 22.9596 24.7596C22.3995 25.4753 22.0925 26.3717 22.0906 27.2971C22.0906 27.5055 22.0116 27.7053 21.8709 27.8526C21.7303 27.9999 21.5395 28.0827 21.3406 28.0827V28.0827Z" fill="#8F6934"/>
<path d="M30.2166 36.3556L30.2063 36.3704C29.891 36.8112 29.4761 37.1632 28.9988 37.3945L24.5147 37.1009C24.2388 36.8992 23.9954 36.6526 23.7938 36.3704L23.7835 36.3556C23.4133 35.8386 23.2133 35.2098 23.2133 34.5636C23.2133 33.9174 23.4133 33.2885 23.7835 32.7715L23.8501 32.6782L24.7501 32.2069L29.2501 21.2061V31.4213L30.2166 32.7715C30.5868 33.2885 30.7869 33.9174 30.7869 34.5636C30.7869 35.2098 30.5868 35.8386 30.2166 36.3556V36.3556Z" fill="#CBCBCB"/>
<path d="M18.6551 25.726C19.0197 25.726 19.3788 25.8203 19.7003 26.0006C20.0218 26.1808 20.2958 26.4414 20.4981 26.7592C20.5906 26.9044 20.7159 27.0235 20.8628 27.1059C21.0098 27.1883 21.1739 27.2314 21.3406 27.2314C21.5072 27.2314 21.6713 27.1883 21.8183 27.1059C21.9653 27.0235 22.0905 26.9044 22.183 26.7592C22.3853 26.4414 22.6593 26.1808 22.9808 26.0006C23.3023 25.8203 23.6613 25.726 24.0259 25.726C24.3581 25.726 24.686 25.8043 24.9854 25.955C25.2848 26.1057 25.548 26.3251 25.7555 26.5967L25.9317 26.8273C26.5627 27.6535 26.9331 28.6645 26.9917 29.7207C27.0504 30.7769 26.7943 31.8261 26.259 32.7233L24.7955 35.1758C24.6563 35.4092 24.4627 35.6016 24.2329 35.735C24.0032 35.8683 23.7448 35.9383 23.4821 35.9383C23.0713 35.9383 22.6774 35.7674 22.3869 35.4632C22.2495 35.3192 22.0864 35.2051 21.9068 35.1272C21.7273 35.0493 21.5349 35.0092 21.3406 35.0092C21.1462 35.0092 20.9538 35.0493 20.7743 35.1272C20.5947 35.2051 20.4316 35.3192 20.2942 35.4632C20.0037 35.7674 19.6098 35.9383 19.199 35.9383C18.9363 35.9383 18.6779 35.8684 18.4482 35.735C18.2184 35.6016 18.0248 35.4092 17.8856 35.1758L16.4221 32.7233C15.8868 31.8261 15.6307 30.7769 15.6894 29.7207C15.748 28.6645 16.1184 27.6535 16.7494 26.8273L16.9255 26.5967C17.133 26.3251 17.3962 26.1058 17.6956 25.955C17.995 25.8043 18.3229 25.7261 18.6551 25.726V25.726Z" fill="#E82F3E"/>
<path d="M19.1813 32.2069C19.0828 32.207 18.9852 32.1868 18.8942 32.1473C18.8032 32.1078 18.7205 32.0499 18.6509 31.9768C18.3207 31.6318 18.1027 31.1865 18.028 30.7042C17.9532 30.222 18.0254 29.7273 18.2344 29.2905L18.5101 28.713C18.6 28.5284 18.7559 28.3884 18.9439 28.3236C19.1319 28.2589 19.3367 28.2745 19.5137 28.3673C19.6907 28.46 19.8256 28.6222 19.8889 28.8186C19.9522 29.015 19.9388 29.2296 19.8517 29.4157L19.576 29.9932C19.5082 30.135 19.4847 30.2957 19.509 30.4523C19.5333 30.6089 19.604 30.7535 19.7112 30.8656C19.8162 30.9754 19.8877 31.1154 19.9167 31.2678C19.9457 31.4202 19.9309 31.5781 19.8742 31.7217C19.8175 31.8653 19.7214 31.9881 19.598 32.0744C19.4747 32.1608 19.3296 32.2069 19.1813 32.2069V32.2069Z" fill="#FF6268"/>
<path d="M2.25 39.2769H45.75V43.9903H2.25V39.2769Z" fill="#EA9D2D"/>
<path d="M6.75 42.4192H5.25C5.05109 42.4192 4.86032 42.3364 4.71967 42.1891C4.57902 42.0418 4.5 41.842 4.5 41.6336C4.5 41.4253 4.57902 41.2255 4.71967 41.0781C4.86032 40.9308 5.05109 40.8481 5.25 40.8481H6.75C6.94891 40.8481 7.13968 40.9308 7.28033 41.0781C7.42098 41.2255 7.5 41.4253 7.5 41.6336C7.5 41.842 7.42098 42.0418 7.28033 42.1891C7.13968 42.3364 6.94891 42.4192 6.75 42.4192Z" fill="#C38325"/>
<path d="M42.75 42.4192H41.25C41.0511 42.4192 40.8603 42.3364 40.7197 42.1891C40.579 42.0418 40.5 41.842 40.5 41.6336C40.5 41.4253 40.579 41.2255 40.7197 41.0781C40.8603 40.9308 41.0511 40.8481 41.25 40.8481H42.75C42.9489 40.8481 43.1397 40.9308 43.2803 41.0781C43.421 41.2255 43.5 41.4253 43.5 41.6336C43.5 41.842 43.421 42.0418 43.2803 42.1891C43.1397 42.3364 42.9489 42.4192 42.75 42.4192Z" fill="#C38325"/>
<path d="M2.25 43.9903H45.75V48.7037H2.25V43.9903Z" fill="#FBB540"/>
<path d="M6.75 47.1325H5.25C5.05109 47.1325 4.86032 47.0498 4.71967 46.9025C4.57902 46.7551 4.5 46.5553 4.5 46.347C4.5 46.1386 4.57902 45.9388 4.71967 45.7915C4.86032 45.6442 5.05109 45.5614 5.25 45.5614H6.75C6.94891 45.5614 7.13968 45.6442 7.28033 45.7915C7.42098 45.9388 7.5 46.1386 7.5 46.347C7.5 46.5553 7.42098 46.7551 7.28033 46.9025C7.13968 47.0498 6.94891 47.1325 6.75 47.1325Z" fill="#C38325"/>
<path d="M24.75 42.4192H23.25C23.0511 42.4192 22.8603 42.3364 22.7197 42.1891C22.579 42.0418 22.5 41.842 22.5 41.6336C22.5 41.4253 22.579 41.2255 22.7197 41.0781C22.8603 40.9308 23.0511 40.8481 23.25 40.8481H24.75C24.9489 40.8481 25.1397 40.9308 25.2803 41.0781C25.421 41.2255 25.5 41.4253 25.5 41.6336C25.5 41.842 25.421 42.0418 25.2803 42.1891C25.1397 42.3364 24.9489 42.4192 24.75 42.4192Z" fill="#C38325"/>
<path d="M24.75 47.1325H23.25C23.0511 47.1325 22.8603 47.0498 22.7197 46.9025C22.579 46.7551 22.5 46.5553 22.5 46.347C22.5 46.1386 22.579 45.9388 22.7197 45.7915C22.8603 45.6442 23.0511 45.5614 23.25 45.5614H24.75C24.9489 45.5614 25.1397 45.6442 25.2803 45.7915C25.421 45.9388 25.5 46.1386 25.5 46.347C25.5 46.5553 25.421 46.7551 25.2803 46.9025C25.1397 47.0498 24.9489 47.1325 24.75 47.1325Z" fill="#C38325"/>
<path d="M42.75 47.1325H41.25C41.0511 47.1325 40.8603 47.0498 40.7197 46.9025C40.579 46.7551 40.5 46.5553 40.5 46.347C40.5 46.1386 40.579 45.9388 40.7197 45.7915C40.8603 45.6442 41.0511 45.5614 41.25 45.5614H42.75C42.9489 45.5614 43.1397 45.6442 43.2803 45.7915C43.421 45.9388 43.5 46.1386 43.5 46.347C43.5 46.5553 43.421 46.7551 43.2803 46.9025C43.1397 47.0498 42.9489 47.1325 42.75 47.1325Z" fill="#C38325"/>
<path d="M33 29.8502L33.659 30.5404C34.1634 31.0688 34.5635 31.696 34.8365 32.3863C35.1095 33.0766 35.25 33.8164 35.25 34.5636H37.5V33.778C37.5 33.0309 37.3595 32.291 37.0865 31.6007C36.8135 30.9104 36.4134 30.2832 35.909 29.7549L35.25 29.0647L33 29.8502Z" fill="#027E2A"/>
<path d="M42 29.8502L41.341 30.5404C40.8366 31.0688 40.4365 31.696 40.1635 32.3863C39.8905 33.0766 39.75 33.8164 39.75 34.5636H37.5V33.778C37.5 33.0309 37.6405 32.291 37.9135 31.6007C38.1865 30.9104 38.5866 30.2832 39.091 29.7549L39.75 29.0647L42 29.8502Z" fill="#027E2A"/>
<path d="M45.75 23.7621C45.7504 23.3298 45.6597 22.9027 45.4844 22.5113C45.3092 22.1198 45.0537 21.7737 44.7361 21.4976C44.8307 21.081 44.8375 20.6478 44.756 20.2282C44.6744 19.8086 44.5065 19.4127 44.2638 19.0681C44.0212 18.7235 43.7097 18.4384 43.3511 18.2328C42.9925 18.0272 42.5954 17.906 42.1875 17.8776C41.6945 16.98 40.9843 16.2344 40.1285 15.716C39.2727 15.1975 38.3016 14.9246 37.313 14.9246C36.3243 14.9246 35.3532 15.1975 34.4974 15.716C33.6416 16.2344 32.9314 16.98 32.4384 17.8776C32.0305 17.9059 31.6333 18.0271 31.2747 18.2326C30.916 18.4382 30.6045 18.7233 30.3618 19.0679C30.1191 19.4126 29.9511 19.8085 29.8695 20.2281C29.7879 20.6477 29.7947 21.081 29.8894 21.4976C29.3187 21.9944 28.9588 22.7075 28.888 23.4812C28.8173 24.2549 29.0416 25.0266 29.5118 25.6278C29.1035 26.4209 28.9679 27.3369 29.1278 28.2223C29.2877 29.1076 29.7334 29.9085 30.3901 30.4905C31.0468 31.0726 31.8745 31.4004 32.7346 31.4192C33.5947 31.4379 34.4348 31.1463 35.114 30.5933C35.9119 30.4841 36.6693 30.1604 37.3125 29.6538C37.9556 30.1605 38.713 30.4842 39.511 30.5935C40.1902 31.1465 41.0303 31.4382 41.8905 31.4195C42.7506 31.4008 43.5784 31.0729 44.2351 30.4908C44.8919 29.9087 45.3375 29.1078 45.4974 28.2224C45.6572 27.337 45.5216 26.4209 45.1131 25.6278C45.5257 25.1022 45.7508 24.4426 45.75 23.7621Z" fill="#02A437"/>
<path d="M39.4343 20.4235C39.2792 20.4235 39.1279 20.3731 39.0012 20.2793C38.8746 20.1854 38.7788 20.0528 38.7272 19.8995C38.6236 19.5932 38.432 19.328 38.1786 19.1405C37.9253 18.9529 37.6226 18.8522 37.3124 18.8522C37.0021 18.8522 36.6995 18.9529 36.4462 19.1405C36.1928 19.328 36.0012 19.5932 35.8976 19.8995C35.8313 20.096 35.6932 20.2568 35.5138 20.3466C35.3343 20.4364 35.1281 20.4479 34.9405 20.3784C34.753 20.309 34.5994 20.1644 34.5137 19.9764C34.4279 19.7884 34.417 19.5724 34.4833 19.376C34.6902 18.7633 35.0734 18.2329 35.5801 17.8577C36.0867 17.4826 36.6919 17.2811 37.3124 17.2811C37.9329 17.2811 38.5381 17.4826 39.0447 17.8577C39.5514 18.2329 39.9345 18.7633 40.1415 19.376C40.1815 19.4945 40.1938 19.6213 40.1773 19.7458C40.1608 19.8703 40.1161 19.9888 40.0468 20.0915C39.9775 20.1941 39.8857 20.2778 39.7792 20.3356C39.6726 20.3934 39.5543 20.4235 39.4343 20.4235V20.4235Z" fill="#027E2A"/>
<path d="M33.5625 25.9224C32.9658 25.9224 32.3935 25.6741 31.9715 25.2322C31.5496 24.7902 31.3125 24.1908 31.3125 23.5657C31.3125 22.9407 31.5496 22.3413 31.9715 21.8993C32.3935 21.4573 32.9658 21.209 33.5625 21.209C33.7614 21.209 33.9522 21.2918 34.0928 21.4391C34.2335 21.5865 34.3125 21.7863 34.3125 21.9946C34.3125 22.2029 34.2335 22.4028 34.0928 22.5501C33.9522 22.6974 33.7614 22.7802 33.5625 22.7802C33.3636 22.7802 33.1728 22.8629 33.0322 23.0103C32.8915 23.1576 32.8125 23.3574 32.8125 23.5657C32.8125 23.7741 32.8915 23.9739 33.0322 24.1212C33.1728 24.2685 33.3636 24.3513 33.5625 24.3513C33.7614 24.3513 33.9522 24.4341 34.0928 24.5814C34.2335 24.7287 34.3125 24.9285 34.3125 25.1368C34.3125 25.3452 34.2335 25.545 34.0928 25.6923C33.9522 25.8396 33.7614 25.9224 33.5625 25.9224Z" fill="#027E2A"/>
<path d="M2.25 34.5636H45.75V39.277H2.25V34.5636Z" fill="#FBB540"/>
<path d="M6.75 37.7058H5.25C5.05109 37.7058 4.86032 37.6231 4.71967 37.4757C4.57902 37.3284 4.5 37.1286 4.5 36.9203C4.5 36.7119 4.57902 36.5121 4.71967 36.3648C4.86032 36.2175 5.05109 36.1347 5.25 36.1347H6.75C6.94891 36.1347 7.13968 36.2175 7.28033 36.3648C7.42098 36.5121 7.5 36.7119 7.5 36.9203C7.5 37.1286 7.42098 37.3284 7.28033 37.4757C7.13968 37.6231 6.94891 37.7058 6.75 37.7058Z" fill="#C38325"/>
<path d="M42.75 37.7058H41.25C41.0511 37.7058 40.8603 37.6231 40.7197 37.4757C40.579 37.3284 40.5 37.1286 40.5 36.9203C40.5 36.7119 40.579 36.5121 40.7197 36.3648C40.8603 36.2175 41.0511 36.1347 41.25 36.1347H42.75C42.9489 36.1347 43.1397 36.2175 43.2803 36.3648C43.421 36.5121 43.5 36.7119 43.5 36.9203C43.5 37.1286 43.421 37.3284 43.2803 37.4757C43.1397 37.6231 42.9489 37.7058 42.75 37.7058Z" fill="#C38325"/>
<path d="M24.75 37.7058H23.25C23.0511 37.7058 22.8603 37.6231 22.7197 37.4757C22.579 37.3284 22.5 37.1286 22.5 36.9203C22.5 36.7119 22.579 36.5121 22.7197 36.3648C22.8603 36.2175 23.0511 36.1347 23.25 36.1347H24.75C24.9489 36.1347 25.1397 36.2175 25.2803 36.3648C25.421 36.5121 25.5 36.7119 25.5 36.9203C25.5 37.1286 25.421 37.3284 25.2803 37.4757C25.1397 37.6231 24.9489 37.7058 24.75 37.7058Z" fill="#C38325"/>
</svg>
