<svg width="512" height="512" viewBox="0 0 512 512" fill="none" xmlns="http://www.w3.org/2000/svg">
<path d="M15 503.5C6.709 503.5 0 496.791 0 488.5V218.5C0 210.209 6.709 203.5 15 203.5H196C204.291 203.5 211 210.209 211 218.5V263.5H317C325.291 263.5 332 270.209 332 278.5V458.5C332 466.791 325.291 473.5 317 473.5H45C36.738 473.5 30 480.224 30 488.5C30 496.791 23.291 503.5 15 503.5Z" fill="#80A3FF"/>
<path d="M317 263.5H211V218.5C211 210.209 204.291 203.5 196 203.5H166V473.5H317C325.291 473.5 332 466.791 332 458.5V278.5C332 270.209 325.291 263.5 317 263.5Z" fill="#5C75E6"/>
<path d="M196 293.5H75C66.709 293.5 60 286.791 60 278.5C60 270.209 66.709 263.5 75 263.5H196C204.291 263.5 211 270.209 211 278.5C211 286.791 204.291 293.5 196 293.5Z" fill="#F3F5F9"/>
<path d="M196 263.5H166V293.5H196C204.291 293.5 211 286.791 211 278.5C211 270.209 204.291 263.5 196 263.5Z" fill="#E2DFF4"/>
<path d="M497 323.5C488.709 323.5 482 316.791 482 308.5C482 300.224 475.262 293.5 467 293.5H196C187.709 293.5 181 286.791 181 278.5V23.5C181 15.209 187.709 8.5 196 8.5H497C505.291 8.5 512 15.209 512 23.5V308.5C512 316.791 505.291 323.5 497 323.5Z" fill="#FF6680"/>
<path d="M497 8.5H347V293.5H467C475.262 293.5 482 300.224 482 308.5C482 316.791 488.709 323.5 497 323.5C505.291 323.5 512 316.791 512 308.5V23.5C512 15.209 505.291 8.5 497 8.5Z" fill="#E62E6B"/>
<path d="M392 113.5C392 129.399 383.301 144.399 369.5 152.5C364.999 155.201 362 160 362 165.4C362 173.801 355.401 180.4 347 180.4C338.599 180.4 332 173.801 332 165.4C332 152.801 337.7 140.499 347 132.1C350.958 128.142 354.276 126.4 354.5 126.4C359.001 123.699 362 118.9 362 113.5C362 105.099 355.401 98.5 347 98.5C338.599 98.5 332 105.099 332 113.5C332 121.899 325.401 128.5 317 128.5C308.599 128.5 302 121.899 302 113.5C302 88.599 322.099 68.5 347 68.5C371.901 68.5 392 88.599 392 113.5Z" fill="#F3F5F9"/>
<path d="M347 233.5C355.284 233.5 362 226.784 362 218.5C362 210.216 355.284 203.5 347 203.5C338.716 203.5 332 210.216 332 218.5C332 226.784 338.716 233.5 347 233.5Z" fill="#F3F5F9"/>
<path d="M257 413.5H75C66.709 413.5 60 406.791 60 398.5C60 390.209 66.709 383.5 75 383.5H257C265.291 383.5 272 390.209 272 398.5C272 406.791 265.291 413.5 257 413.5Z" fill="#F3F5F9"/>
<path d="M257 353.5H75C66.709 353.5 60 346.791 60 338.5C60 330.209 66.709 323.5 75 323.5H257C265.291 323.5 272 330.209 272 338.5C272 346.791 265.291 353.5 257 353.5Z" fill="#F3F5F9"/>
<path d="M362 218.5C362 210.214 355.284 203.5 347 203.5V233.5C355.284 233.5 362 226.784 362 218.5Z" fill="#E2DFF4"/>
<path d="M392 113.5C392 129.399 383.301 144.399 369.5 152.5C364.999 155.201 362 160 362 165.4C362 173.801 355.401 180.4 347 180.4V132.1C350.958 128.142 354.276 126.4 354.5 126.4C359.001 123.699 362 118.9 362 113.5C362 105.099 355.401 98.5 347 98.5V68.5C371.901 68.5 392 88.599 392 113.5V113.5Z" fill="#E2DFF4"/>
<path d="M257 383.5H166V413.5H257C265.291 413.5 272 406.791 272 398.5C272 390.209 265.291 383.5 257 383.5Z" fill="#E2DFF4"/>
<path d="M257 323.5H166V353.5H257C265.291 353.5 272 346.791 272 338.5C272 330.209 265.291 323.5 257 323.5Z" fill="#E2DFF4"/>
</svg>
