<svg width="512" height="512" viewBox="0 0 512 512" fill="none" xmlns="http://www.w3.org/2000/svg">
<path d="M331 0H116C85.673 0 61 24.673 61 55V457C61 487.327 85.673 512 116 512H396C426.327 512 451 487.327 451 457V120L331 0Z" fill="#FFFA8C"/>
<path d="M256 0V512H396C426.327 512 451 487.327 451 457V120L331 0H256Z" fill="#FFC178"/>
<path d="M256 452C254.548 452 253.096 451.789 251.69 451.367C219.455 441.697 191.797 422.313 171.708 395.313C151.619 368.312 141 336.251 141 302.597V217C141 208.716 147.716 202 156 202C174.955 202 191.996 191.468 200.472 174.515L202.583 170.293C205.124 165.21 210.318 162 216 162H296C301.682 162 306.876 165.21 309.417 170.292L311.528 174.515C320.004 191.468 337.045 202 356 202C364.284 202 371 208.716 371 217V302.597C371 336.251 360.381 368.312 340.292 395.313C320.203 422.313 292.545 441.697 260.31 451.367C258.904 451.789 257.452 452 256 452V452Z" fill="#9DDFF6"/>
<path d="M356 202C337.045 202 320.004 191.468 311.528 174.516L309.417 170.293C306.876 165.21 301.682 162 296 162H256V452C257.452 452 258.904 451.789 260.31 451.367C292.545 441.697 320.203 422.313 340.292 395.313C360.381 368.312 371 336.251 371 302.597V217C371 208.716 364.284 202 356 202Z" fill="#6BA7FF"/>
<path d="M171 230.603V302.598C171 356.854 204.971 403.983 256 421.258C307.029 403.983 341 356.854 341 302.598V230.603C318.299 226.318 298.563 212.403 286.875 192H225.125C213.437 212.403 193.701 226.318 171 230.603V230.603Z" fill="#F5F5FF"/>
<path d="M286.875 192H256V421.257C307.029 403.982 341 356.853 341 302.597V230.602C318.299 226.318 298.563 212.402 286.875 192V192Z" fill="#E2E7FA"/>
<path d="M241.858 350.284C238.019 350.284 234.18 348.82 231.252 345.89L202.968 317.606C197.11 311.748 197.11 302.251 202.968 296.393C208.825 290.535 218.323 290.535 224.181 296.393L241.859 314.07L287.821 268.109C293.678 262.251 303.176 262.251 309.034 268.109C314.892 273.967 314.892 283.464 309.034 289.322L252.466 345.89C249.536 348.82 245.697 350.284 241.858 350.284V350.284Z" fill="#6B61B1"/>
<path d="M287.82 268.109L256 299.929V342.355L309.033 289.322C314.891 283.464 314.891 273.967 309.033 268.109C303.175 262.251 293.677 262.251 287.82 268.109V268.109Z" fill="#453D81"/>
<path d="M331 0V105C331 113.284 337.716 120 346 120H451L331 0Z" fill="#FF9D21"/>
</svg>
