<svg width="512" height="512" viewBox="0 0 512 512" fill="none" xmlns="http://www.w3.org/2000/svg">
<path d="M400 24H80C66.7452 24 56 34.7452 56 48V392C56 405.255 66.7452 416 80 416H400C413.255 416 424 405.255 424 392V48C424 34.7452 413.255 24 400 24Z" fill="#E3E4E2"/>
<path d="M400 24H80C73.6348 24 67.5303 26.5286 63.0294 31.0294C58.5286 35.5303 56 41.6348 56 48V88H424V48C424 41.6348 421.471 35.5303 416.971 31.0294C412.47 26.5286 406.365 24 400 24V24Z" fill="#0093B9"/>
<path d="M80 48H96V64H80V48Z" fill="#EB5849"/>
<path d="M112 48H128V64H112V48Z" fill="#F6BC1B"/>
<path d="M144 48H160V64H144V48Z" fill="#85BB40"/>
<path d="M440.224 495.578H352.224V351.578H289.479C284.902 351.578 280.513 349.76 277.277 346.524C274.042 343.288 272.224 338.899 272.224 334.323C272.224 330.213 273.691 326.238 276.361 323.114C279.03 319.989 282.728 317.92 286.788 317.279L403.24 298.892C409.029 297.978 414.952 299.214 419.893 302.366C424.833 305.518 428.45 310.37 430.06 316.005L440.224 351.578V495.578Z" fill="#F5BE9A"/>
<path d="M380.832 327.562L368.147 340.247C365.023 343.37 365.023 348.435 368.147 351.559C371.271 354.682 376.335 354.682 379.459 351.559L392.144 338.874C395.267 335.751 395.267 330.686 392.144 327.562C389.02 324.439 383.955 324.439 380.832 327.562Z" fill="#EC917F"/>
<path d="M471.772 351.578H248.224L235.592 360H216C213.878 360 211.843 360.843 210.343 362.343C208.843 363.843 208 365.878 208 368C208 370.122 208.843 372.157 210.343 373.657C211.843 375.157 213.878 376 216 376H236.856L248.224 383.578H472.224C474.39 383.578 476.534 383.138 478.525 382.285C480.517 381.432 482.314 380.184 483.808 378.615C485.303 377.047 486.463 375.191 487.219 373.161C487.975 371.131 488.311 368.969 488.206 366.805C487.8 358.2 480.388 351.578 471.772 351.578Z" fill="#0093B9"/>
<path d="M488.224 367.578C488.224 363.335 486.538 359.265 483.537 356.264C480.537 353.264 476.467 351.578 472.224 351.578H456.224V383.578H472.224C476.467 383.578 480.537 381.892 483.537 378.892C486.538 375.891 488.224 371.821 488.224 367.578Z" fill="#E3E4E2"/>
<path d="M352.224 447.578L334.507 440.492C327.929 437.861 322.29 433.318 318.318 427.452C314.346 421.585 312.224 414.663 312.224 407.578L285.2 380.549C283.624 378.973 282.373 377.102 281.52 375.043C280.668 372.984 280.229 370.778 280.229 368.549C280.229 364.048 282.017 359.731 285.199 356.549C288.382 353.366 292.699 351.578 297.2 351.578H300.223C302.857 351.578 305.455 352.192 307.812 353.37L368.229 383.578L392.229 407.578L352.224 447.578Z" fill="#F5BE9A"/>
<path d="M379.455 383.578C376.332 380.455 371.267 380.455 368.143 383.578C365.02 386.702 365.02 391.767 368.143 394.89L380.828 407.575C383.951 410.699 389.016 410.699 392.14 407.575C395.263 404.451 395.263 399.387 392.14 396.263L379.455 383.578Z" fill="#EC917F"/>
<path d="M96 128H224V256H96V128Z" fill="#0093B9"/>
<path d="M160 208C173.255 208 184 197.255 184 184C184 170.745 173.255 160 160 160C146.745 160 136 170.745 136 184C136 197.255 146.745 208 160 208Z" fill="#F6BC1B"/>
<path d="M128 256V240C128 231.513 131.371 223.374 137.373 217.373C143.374 211.371 151.513 208 160 208C168.487 208 176.626 211.371 182.627 217.373C188.629 223.374 192 231.513 192 240V256H128Z" fill="#F6BC1B"/>
<path d="M128 280H224V296H128V280Z" fill="#B2B1B4"/>
<path d="M96 280H112V296H96V280Z" fill="#B2B1B4"/>
<path d="M296 136H392V152H296V136Z" fill="#B2B1B4"/>
<path d="M264 168H392V184H264V168Z" fill="#B2B1B4"/>
<path d="M264 200H392V216H264V200Z" fill="#B2B1B4"/>
<path d="M264 232H392V248H264V232Z" fill="#B2B1B4"/>
<path d="M264 136H280V152H264V136Z" fill="#B2B1B4"/>
<path d="M440 56H456V216H440V56Z" fill="#B2B1B4"/>
<path d="M440 232H456V248H440V232Z" fill="#B2B1B4"/>
<path d="M95.4283 378.971L80.5723 373.029L91.6103 345.435C92.6124 342.929 94.3176 340.766 96.5205 339.207C98.7234 337.647 101.33 336.758 104.027 336.645C106.723 336.533 109.395 337.203 111.72 338.573C114.045 339.944 115.924 341.958 117.131 344.372L123.103 356.316L135.47 348.072C138.166 346.283 141.396 345.48 144.615 345.799C147.834 346.118 150.844 347.539 153.136 349.821L163.313 360H192V376H162.485C160.646 376.005 158.824 375.646 157.125 374.942C155.425 374.238 153.882 373.204 152.585 371.9L142.98 362.295L130.093 370.887C128.442 371.988 126.575 372.726 124.616 373.05C122.658 373.375 120.653 373.279 118.734 372.77C116.816 372.26 115.027 371.349 113.488 370.095C111.948 368.842 110.693 367.275 109.805 365.5L104.812 355.513L95.4283 378.971Z" fill="#EB5849"/>
</svg>
