<svg width="512" height="512" viewBox="0 0 512 512" fill="none" xmlns="http://www.w3.org/2000/svg">
<path d="M33.6719 0C15.0703 0 0 15.0703 0 33.6719V92.6758H67.3398V33.6719C67.3398 15.0703 52.2617 0 33.6719 0Z" fill="#EDD4C2"/>
<path d="M409.852 0H33.6641C52.2656 0 67.3359 15.0742 67.3359 33.6719V512H443.523V33.6719C443.523 15.0742 428.438 0 409.852 0Z" fill="#FFEFE4"/>
<path d="M67.3359 492H443.523V512H67.3359V492Z" fill="#EDD4C2"/>
<path d="M409.852 0H33.6641C47.3945 0 59.1953 8.21875 64.4375 20H409.852C428.438 20 443.523 35.0742 443.523 53.6719V33.6719C443.523 15.0742 428.438 0 409.852 0Z" fill="#FFF7F2"/>
<path d="M512 454.984H466.727V140.926H512V454.984Z" fill="#FF8354"/>
<path d="M512 466.652H466.727V454.988H512V466.652Z" fill="#FFEFE4"/>
<path d="M466.727 466.648H512V489.363C512 501.867 501.867 512 489.363 512C476.863 512 466.727 501.867 466.727 489.363V466.648Z" fill="#6770E6"/>
<path d="M489.363 492C476.863 492 466.727 481.867 466.727 469.363V489.363C466.727 501.867 476.863 512 489.363 512C501.867 512 512 501.867 512 489.363V469.363C512 481.867 501.867 492 489.363 492V492Z" fill="#5861C7"/>
<path d="M466.727 140.906L487.691 82.4141C488.254 80.8438 490.473 80.8438 491.035 82.4141L512 140.906H466.727Z" fill="#EDD4C2"/>
<path d="M478.043 109.328H500.68L491.035 82.4141C490.473 80.8438 488.25 80.8438 487.688 82.4141L478.043 109.328Z" fill="#5861C7"/>
<path d="M478.043 109.328H500.68L491.035 82.4141C490.473 80.8438 488.25 80.8438 487.688 82.4141L478.043 109.328Z" fill="#5861C7"/>
<path d="M486.883 92.4141C487.719 90.8438 491.008 90.8438 491.84 92.4141L500.398 108.535L491.035 82.4141C490.473 80.8438 488.254 80.8438 487.691 82.4141L478.332 108.527L486.883 92.4141Z" fill="#8F95E6"/>
<path d="M374.832 203.375H176.027C170.949 203.375 166.828 199.258 166.828 194.18C166.828 189.098 170.949 184.98 176.027 184.98H374.828C379.91 184.98 384.027 189.098 384.027 194.18C384.031 199.258 379.91 203.375 374.832 203.375Z" fill="#6770E6"/>
<path d="M374.832 251.578H176.027C170.949 251.578 166.828 247.461 166.828 242.379C166.828 237.301 170.949 233.184 176.027 233.184H374.828C379.91 233.184 384.027 237.301 384.027 242.379C384.031 247.461 379.91 251.578 374.832 251.578Z" fill="#6770E6"/>
<path d="M374.832 299.781H176.027C170.949 299.781 166.828 295.664 166.828 290.582C166.828 285.504 170.949 281.383 176.027 281.383H374.828C379.91 281.383 384.027 285.504 384.027 290.582C384.031 295.664 379.91 299.781 374.832 299.781Z" fill="#6770E6"/>
<path d="M374.832 347.98H176.027C170.949 347.98 166.828 343.863 166.828 338.785C166.828 333.703 170.949 329.586 176.027 329.586H374.828C379.91 329.586 384.027 333.703 384.027 338.785C384.031 343.863 379.91 347.98 374.832 347.98Z" fill="#6770E6"/>
<path d="M145.23 194.176C145.23 199.258 141.109 203.375 136.031 203.375C130.949 203.375 126.828 199.258 126.828 194.176C126.828 189.094 130.949 184.977 136.031 184.977C141.109 184.977 145.23 189.094 145.23 194.176Z" fill="#6770E6"/>
<path d="M145.23 242.379C145.23 247.461 141.109 251.582 136.031 251.582C130.949 251.582 126.828 247.461 126.828 242.379C126.828 237.301 130.949 233.18 136.031 233.18C141.109 233.18 145.23 237.301 145.23 242.379Z" fill="#6770E6"/>
<path d="M145.23 290.582C145.23 295.664 141.109 299.781 136.031 299.781C130.949 299.781 126.828 295.664 126.828 290.582C126.828 285.5 130.949 281.383 136.031 281.383C141.109 281.383 145.23 285.5 145.23 290.582V290.582Z" fill="#6770E6"/>
<path d="M145.23 338.785C145.23 343.863 141.109 347.984 136.031 347.984C130.949 347.984 126.828 343.863 126.828 338.785C126.828 333.703 130.949 329.586 136.031 329.586C141.109 329.586 145.23 333.703 145.23 338.785V338.785Z" fill="#6770E6"/>
<path d="M165.215 128.004V65.0352H148.867C144.621 65.0352 141.176 61.5938 141.176 57.3438C141.176 53.0977 144.621 49.6523 148.867 49.6523H197.777C202.027 49.6523 205.469 53.0977 205.469 57.3438C205.469 61.5938 202.027 65.0352 197.777 65.0352H181.43V128.004C181.43 132.254 177.984 135.695 173.738 135.695H172.906C168.66 135.695 165.215 132.254 165.215 128.004Z" fill="#6770E6"/>
<path d="M276.645 118.035L280.879 123.113C283.488 126.246 282.969 130.918 279.734 133.398C276.668 135.758 272.289 135.258 269.828 132.273L267.988 130.043C262.297 135.102 255.453 137.625 247.441 137.625C242.953 137.625 238.77 136.879 234.883 135.395C230.992 133.918 227.609 131.836 224.73 129.145C221.848 126.465 219.578 123.277 217.934 119.59C216.289 115.91 215.469 111.863 215.469 107.453C215.469 102.648 216.652 98.082 219.02 93.75C221.375 89.4297 224.684 85.7383 228.938 82.6992C227.41 80.6133 226.168 78.4531 225.211 76.2031C224.242 73.9648 223.762 71.5977 223.762 69.1133C223.762 66.1484 224.309 63.375 225.387 60.7617C226.473 58.1602 228.008 55.9023 230.012 53.9727C232.016 52.0586 234.383 50.5312 237.102 49.4062C239.828 48.293 242.836 47.7227 246.121 47.7227C251.891 47.7227 256.516 49.0625 259.996 51.7539C260.957 52.4922 261.84 53.2812 262.648 54.125C265.945 57.5586 265.102 63.1758 260.895 65.3984L260.141 65.7969C257.551 67.168 254.492 66.4062 252.477 64.2812C250.48 62.1836 247.852 61.543 246.352 61.543C244.035 61.543 242.187 62.2266 240.824 63.5859C239.465 64.957 238.781 66.6758 238.781 68.7617C238.781 70.043 239.066 71.2148 239.625 72.3008C240.184 73.3867 240.945 74.5195 241.91 75.7227L267.75 107.215L271.289 101.453C273.242 98.2734 277.422 97.3047 280.574 99.2969C283.711 101.277 284.641 105.422 282.656 108.551L276.645 118.035ZM248.164 123.441C252.645 123.441 256.332 122.113 259.219 119.473L237.469 93.1523C235.227 94.8359 233.508 96.8984 232.305 99.3438C231.102 101.789 230.492 104.293 230.492 106.855C230.492 109.422 230.98 111.727 231.941 113.762C232.898 115.805 234.203 117.555 235.844 118.992C237.488 120.43 239.375 121.535 241.496 122.297C243.617 123.062 245.84 123.441 248.164 123.441V123.441Z" fill="#6770E6"/>
<path d="M367.215 116.266C370.738 119.605 370.434 125.258 366.648 128.293C364.02 130.402 361.176 132.172 358.117 133.594C352.348 136.273 345.898 137.621 338.773 137.621C332.355 137.621 326.41 136.457 320.926 134.129C315.438 131.813 310.684 128.645 306.684 124.645C302.676 120.633 299.516 115.891 297.188 110.395C294.859 104.906 293.707 99 293.707 92.6719C293.707 86.3438 294.859 80.4375 297.188 74.9414C299.516 69.4531 302.676 64.7109 306.684 60.6992C310.684 56.6992 315.438 53.5312 320.926 51.2148C326.41 48.8867 332.355 47.7227 338.773 47.7227C345.656 47.7227 351.73 48.9258 356.973 51.332C359.754 52.6055 362.367 54.1797 364.82 56.0547C368.387 58.7852 368.559 64.125 365.336 67.2461L364.648 67.9102C361.949 70.5234 357.793 70.6328 354.801 68.3594C353.512 67.3789 352.152 66.5078 350.723 65.7461C347.398 63.9844 343.457 63.1055 338.891 63.1055C334.879 63.1055 331.113 63.8086 327.594 65.207C324.062 66.6172 321.004 68.5937 318.398 71.1523C315.797 73.7266 313.734 76.8281 312.211 80.4727C310.684 84.1211 309.934 88.1797 309.934 92.6719C309.934 97.1602 310.687 101.219 312.211 104.867C313.734 108.516 315.801 111.613 318.398 114.176C321.004 116.75 324.062 118.723 327.594 120.133C331.113 121.531 334.879 122.234 338.891 122.234C343.691 122.234 347.965 121.258 351.691 119.289C353.441 118.367 355.098 117.266 356.656 115.98C359.777 113.418 364.285 113.488 367.215 116.266V116.266Z" fill="#6770E6"/>
<path d="M182.992 454.984H134.898C130.445 454.984 126.832 451.371 126.832 446.918V398.82C126.832 394.363 130.445 390.754 134.898 390.754H182.996C187.453 390.754 191.062 394.363 191.062 398.82V446.918C191.062 451.371 187.449 454.984 182.992 454.984Z" fill="#EDD4C2"/>
<path d="M155.273 441.023C153.601 441.023 151.914 440.477 150.503 439.363L141.015 431.859C137.683 429.223 137.117 424.383 139.753 421.047C142.386 417.715 147.23 417.148 150.562 419.785L154.101 422.582L168.73 404.629C171.414 401.336 176.265 400.84 179.558 403.523C182.855 406.211 183.351 411.059 180.664 414.355L161.246 438.187C159.726 440.051 157.511 441.023 155.273 441.023Z" fill="#6770E6"/>
<path d="M374.832 432.066H230.262C225.184 432.066 221.062 427.949 221.062 422.867C221.062 417.789 225.184 413.672 230.262 413.672H374.832C379.91 413.672 384.031 417.789 384.031 422.867C384.031 427.949 379.91 432.066 374.832 432.066V432.066Z" fill="#6770E6"/>
</svg>
